<svg xmlns="http://www.w3.org/2000/svg" viewBox="0 0 794.66669 794.66669" height="794.667" width="794.667"><defs><clipPath id="a"><path d="M.06 0h595.22v595.28H.06z"/></clipPath><clipPath id="b"><path d="M0 0h596v596H0z"/></clipPath><clipPath id="c"><path d="M327.35 409.235c20.818-10.816 33.716-25.811 33.716-42.389 0-32.964-51-59.69-113.912-59.69-36.53 0-69.04 9.014-89.888 23.024 10.055-33.874 66.703-59.817 135.08-59.817 75.482 0 136.662 31.614 136.662 70.609.001 32.742-43.144 60.277-101.658 68.263"/></clipPath><linearGradient id="d" gradientTransform="rotate(98.487 38.194 263.057) scale(189.6911)" gradientUnits="userSpaceOnUse" x2="1"><stop offset="0" stop-color="#050606"/><stop offset="1" stop-color="#214d8b"/></linearGradient><clipPath id="e"><path d="M0 0h596v596H0z"/></clipPath><clipPath id="f"><path d="M292.188 264.769c-80.295 0-145.387 34.536-145.387 77.138 0 42.601 65.091 77.137 145.387 77.137 80.295 0 145.394-34.536 145.394-77.137.001-42.601-65.098-77.138-145.394-77.138zm-.158 156.143c-81.756 0-148.035-35.721-148.035-79.785 0-44.065 66.279-79.785 148.035-79.785 81.765 0 148.044 35.72 148.044 79.785 0 44.064-66.279 79.785-148.044 79.785"/></clipPath><linearGradient id="g" gradientTransform="translate(143.995 341.127) scale(296.08)" gradientUnits="userSpaceOnUse" x2="1"><stop offset="0" stop-color="#707477"/><stop offset="1" stop-color="#6a6f71"/></linearGradient><clipPath id="h"><path d="M292.188 271.313c-74.957 0-135.729 31.396-135.729 70.124 0 38.732 60.772 70.127 135.729 70.127 74.965 0 135.733-31.395 135.733-70.127 0-38.728-60.768-70.124-135.733-70.124zm-.158 149.599c-81.756 0-148.035-35.721-148.035-79.785 0-44.065 66.279-79.785 148.035-79.785 81.765 0 148.044 35.72 148.044 79.785 0 44.064-66.279 79.785-148.044 79.785"/></clipPath><linearGradient id="i" gradientTransform="translate(143.995 341.127) scale(296.08)" gradientUnits="userSpaceOnUse" x2="1"><stop offset="0" stop-color="#c9cac8"/><stop offset="1" stop-color="#999b9b"/></linearGradient><clipPath id="j"><path d="M292.188 271.313c-74.957 0-135.729 31.396-135.729 70.124 0 38.732 60.772 70.127 135.729 70.127 74.965 0 135.733-31.395 135.733-70.127 0-38.728-60.768-70.124-135.733-70.124zm-.625 146.324c-79.175 0-143.361-34.044-143.361-76.042 0-42 64.186-76.045 143.361-76.045 79.184 0 143.367 34.045 143.367 76.045-.001 41.997-64.183 76.042-143.367 76.042"/></clipPath><linearGradient id="k" gradientTransform="rotate(-45.978 592.995 -67.637) scale(174.232)" gradientUnits="userSpaceOnUse" x2="1"><stop offset="0" stop-color="#e1e2df"/><stop offset="1" stop-color="#d2d3d1"/></linearGradient><clipPath id="l"><path d="M292.188 271.313c-74.957 0-135.729 31.396-135.729 70.124 0 38.732 60.772 70.127 135.729 70.127 74.965 0 135.733-31.395 135.733-70.127 0-38.728-60.768-70.124-135.733-70.124zm0 141.375c-76.163 0-137.905-31.9-137.905-71.252 0-39.351 61.742-71.253 137.905-71.253 76.167 0 137.908 31.902 137.908 71.253.001 39.353-61.741 71.252-137.908 71.252"/></clipPath><linearGradient id="m" gradientTransform="rotate(-30.228 810.144 -251.853) scale(183.2436)" gradientUnits="userSpaceOnUse" x2="1"><stop offset="0" stop-color="#efefed"/><stop offset="1" stop-color="#b2b4b2"/></linearGradient><clipPath id="n"><path d="M0 0h596v596H0z"/></clipPath><clipPath id="o"><path d="M352.886 289.857c-.154-.7-.466-1.949-1.166-1.949-.704 0-.942.779-1.25 1.794-.313 1.015-.621 3.661-1.79 6.467-1.172 2.805-6.234 3.118-9.817 3.428-3.583.31-18.103.988-21.115.701-.417-.04-1.152-.057-2.101-.121l-.474-1.256c2.302.272 4.463.442 6.39.442 5.225 0 6.237-.078 9.425-.465 3.203-.391 10.056-1.251 12.78-2.106 2.73-.857 3.668-2.806 4.367-4.599.703-1.789 2.261-6.544 2.261-6.544s.388-1.948 1.325-1.948c.932 0 1.32 2.027 1.32 2.027l-.155 4.129"/></clipPath><linearGradient id="p" gradientTransform="translate(315.173 292.034) scale(37.8682)" gradientUnits="userSpaceOnUse" x2="1"><stop offset="0" stop-color="#8d8f8f"/><stop offset="1" stop-color="#919392"/></linearGradient><clipPath id="q"><path d="M357.637 304.039c2.966-1.168 10.296-1.671 11.463-1.671 1.17 0 3.184.114 3.184-.9s-1.163-1.093-2.567-1.169l10.053-.234c2.412.156 4.128.469 4.128 1.246 0 .781-.937 1.092-4.362 1.559-3.429.467-13.636 1.56-19.016 2.729l-2.883-1.56"/></clipPath><linearGradient id="r" gradientTransform="rotate(-90 336.625 -34.142) scale(1.909)" gradientUnits="userSpaceOnUse" x2="1"><stop offset="0" stop-color="#e1e2df"/><stop offset="1" stop-color="#dadbd8"/></linearGradient><clipPath id="s"><path d="M352.886 311.675c-.237 1.325-.779 2.493-1.403 2.493-.622 0-1.167-1.481-1.403-2.573-.23-1.089-.15-4.906-2.645-6.543-2.493-1.636-5.225-2.304-13.88-2.774-8.645-.466-15.887-.186-18.533-.11l-.089 1.043c2.941-.289 5.93-.44 10.063-.341 6.466.156 13.322 1.636 16.984 2.335 3.659.704 4.362 2.34 5.3 3.82.933 1.481 2.178 5.922 2.411 6.622.238.702.543 2.962 1.792 2.962s1.791-3.351 2.567-5.455l-1.164-1.479"/></clipPath><linearGradient id="t" gradientTransform="scale(21.4693) rotate(3.745 -212.83 241.002)" gradientUnits="userSpaceOnUse" x2="1"><stop offset="0" stop-color="#8d8f8f"/><stop offset="1" stop-color="#dadbd8"/></linearGradient><clipPath id="u"><path d="M295.462 306.854a5.771 5.771 0 0 1 1.092-.631c3.509-1.561 8.182-1.792 13.244-2.417 5.065-.624 8.73-1.09 15.197-.935l.053-.761c-4.68-.073-8.324.01-10.027.059-2.652.08-16.441.469-20.804 1.95a6.072 6.072 0 0 0-1.163.615l2.408 2.12"/></clipPath><linearGradient id="v" gradientTransform="scale(16.1142) rotate(-44.559 32.92 -13.186)" gradientUnits="userSpaceOnUse" x2="1"><stop offset="0" stop-color="#ebeae7"/><stop offset="1" stop-color="#8d8f8f"/></linearGradient><clipPath id="w"><path d="M317.748 300.298c-2.571-.076-16.91-1.326-20.726-1.558-3.816-.235-5.141-2.648-5.687-3.741-.549-1.089-2.104-8.648-2.262-9.271-.156-.624-.391-1.87-.779-1.87v-4.984c.858 0 1.869 4.205 1.869 4.205s2.107 8.961 3.665 10.595c1.558 1.639 1.791 2.258 8.728 3.352 5.371.845 10.694 1.782 15.254 2.163l-.062 1.109"/></clipPath><linearGradient id="x" gradientTransform="scale(29.4807) rotate(39.369 -8.636 18.636)" gradientUnits="userSpaceOnUse" x2="1"><stop offset="0" stop-color="#86898a"/><stop offset="1" stop-color="#8d8f8f"/></linearGradient><clipPath id="y"><path d="M274.813 299.207s4.677-.232 6.547-1.09c1.868-.857 3.505-1.793 3.972-3.663.466-1.867 2.028-8.569 2.182-9.193.154-.623.391-1.403.779-1.403s.623 1.246.779 1.87l1.09-2.649s-1.011-4.205-1.869-4.205c-.858 0-1.871 3.971-1.871 3.971s-2.104 7.169-2.958 9.581c-.857 2.416-2.339 3.039-4.519 3.822-.833.296-2.459.607-4.258.886l.126 2.073"/></clipPath><linearGradient id="z" gradientTransform="scale(21.8217) rotate(-60.036 18.084 -4.443)" gradientUnits="userSpaceOnUse" x2="1"><stop offset="0" stop-color="#d2d4d1"/><stop offset="1" stop-color="#9b9e9d"/></linearGradient><clipPath id="A"><path d="M287.514 285.261c.154-.623.391-1.403.779-1.403.295 0 .499.699.646 1.315l.205-5.245c-.277-.607-.567-1.054-.851-1.054-.279 0-.581.427-.854 1l.075 5.387"/></clipPath><linearGradient id="B" gradientTransform="translate(287.169 282.067) scale(2.3188)" gradientUnits="userSpaceOnUse" x2="1"><stop offset="0" stop-color="#8a8d8d"/><stop offset="1" stop-color="#919393"/></linearGradient><clipPath id="C"><path d="M278.945 296.248c-2.183.778-9.819 1.636-11.769 1.869-1.946.236-13.631 1.404-13.71 2.962-.075 1.558 14.18 2.647 14.18 2.647l.392-1.478c-2.338-.313-4.29-.236-4.29-1.014 0-.78 1.483-1.324 4.365-1.482 2.883-.154 6.7-.545 6.7-.545s4.677-.232 6.547-1.09l-2.415-1.869"/></clipPath><linearGradient id="D" gradientTransform="matrix(14.025 -8.1812 8.1812 14.025 264.537 301.149)" gradientUnits="userSpaceOnUse" x2="1"><stop offset="0" stop-color="#9b9e9d"/><stop offset="1" stop-color="#d2d4d1"/></linearGradient><clipPath id="E"><path d="M253.466 301.079c-.075 1.558 14.18 2.647 14.18 2.647 7.245.704 11.298 1.558 13.713 3.036 2.413 1.482 4.054 7.482 4.675 9.51.624 2.024 1.633 4.362 2.178 4.362.549 0 1.172-1.482 2.104-4.597l-.779-3.271c-.467 2.804-.7 3.506-1.399 3.506-.705 0-1.171-2.104-1.563-3.974-.387-1.871-.969-7.042-4.669-8.18-4.053-1.248-6.312-1.637-13.869-1.87-2.338-.313-4.29-.236-4.29-1.014l-10.281-.155"/></clipPath><linearGradient id="F" gradientTransform="translate(253.466 310.856) scale(36.8501)" gradientUnits="userSpaceOnUse" x2="1"><stop offset="0" stop-color="#9b9e9d"/><stop offset="1" stop-color="#fff"/></linearGradient><clipPath id="G"><path d="M294.217 304.118c-2.495 1.011-3.82 3.191-4.678 8.649-.467 2.804-.7 3.506-1.399 3.506l.074 4.361c.55 0 1.172-1.481 2.104-4.596.937-3.116 2.729-8.258 6.236-9.813l-2.337-2.107"/></clipPath><linearGradient id="H" gradientTransform="scale(17.07) rotate(-62.031 23.892 -4.758)" gradientUnits="userSpaceOnUse" x2="1"><stop offset="0" stop-color="#c0bfbe"/><stop offset="1" stop-color="#fff"/></linearGradient><clipPath id="I"><path d="M287.733 316.019c.123.161.259.253.407.253a.628.628 0 0 0 .513-.224l.061 4.211c-.172.251-.341.375-.498.375-.152 0-.341-.181-.546-.492l.063-4.123"/></clipPath><linearGradient id="J" gradientTransform="translate(287.668 318.326) scale(1.0439)" gradientUnits="userSpaceOnUse" x2="1"><stop offset="0" stop-color="#fff"/><stop offset="1" stop-color="#b9b9b8"/></linearGradient><clipPath id="K"><path d="M264.52 300.391c-.514.233-.772.516-.772.843 0 .292.276.464.744.58l-8.892.325c-1.297-.319-2.155-.676-2.133-1.061.018-.398.786-.771 1.964-1.108l9.089.421"/></clipPath><linearGradient id="L" gradientTransform="matrix(.016 2.0418 -2.0418 .016 258.99 300.255)" gradientUnits="userSpaceOnUse" x2="1"><stop offset="0" stop-color="#999b9b"/><stop offset="1" stop-color="#acafad"/></linearGradient><clipPath id="M"><path d="M351.72 283.701c.932 0 1.32 2.027 1.32 2.027s2.495 7.946 3.895 9.195c1.407 1.246 2.42 2.414 9.353 3.27 6.936.86 11.065 1.716 13.481 1.872 2.412.156 4.128.469 4.128 1.246l-11.614.157c0-1.014-1.163-1.093-2.567-1.169-1.403-.079-7.711-.623-11.764-1.4-4.054-.781-4.912-8.34-5.066-9.042-.154-.7-.465-1.946-1.166-1.946v-4.21"/></clipPath><linearGradient id="N" gradientTransform="rotate(-107.168 296.216 14.322) scale(25.5783)" gradientUnits="userSpaceOnUse" x2="1"><stop offset="0" stop-color="#fff"/><stop offset="1" stop-color="#acafae"/></linearGradient><clipPath id="O"><path d="M363.049 302.941c-2.068.247-4.153.601-5.412 1.097-2.958 1.167-4.05 3.196-4.751 7.637-.237 1.325-.779 2.493-1.403 2.493-.622 0-1.167-1.481-1.403-2.573l-.389 4.052c.238.702.543 2.962 1.792 2.962s1.791-3.351 2.567-5.455c.786-2.104 1.098-6.392 6.47-7.555a73.955 73.955 0 0 1 3.344-.63l-.815-2.028"/></clipPath><linearGradient id="P" gradientTransform="rotate(-45.648 548.616 -261.396) scale(17.1055)" gradientUnits="userSpaceOnUse" x2="1"><stop offset="0" stop-color="#d7d9d6"/><stop offset="1" stop-color="#e1e2df"/></linearGradient><clipPath id="Q"><path d="M350.434 317.85c.244.436.582.759 1.049.759.345 0 .635-.253.889-.667l.209-5.103c-.011.029-.024.059-.032.086-.274.732-.65 1.244-1.066 1.244-.422 0-.807-.681-1.085-1.457l.036 5.138"/></clipPath><linearGradient id="R" gradientTransform="translate(350.667 315.66) scale(1.7898)" gradientUnits="userSpaceOnUse" x2="1"><stop offset="0" stop-color="#dddeda"/><stop offset="1" stop-color="#dadbd8"/></linearGradient><clipPath id="S"><path d="M382.131 300.323c1.098.197 1.766.501 1.766.988 0 .516-.41.829-1.7 1.116l-10.959-.075c.6-.124 1.045-.379 1.045-.884 0-.287-.09-.498-.255-.656l10.103-.489"/></clipPath><linearGradient id="T" gradientTransform="rotate(-90 339.799 -37.768) scale(1.1093)" gradientUnits="userSpaceOnUse" x2="1"><stop offset="0" stop-color="#e1e2df"/><stop offset="1" stop-color="#fefefd"/></linearGradient><clipPath id="U"><path d="M352.886 289.857c-.154-.7-.466-1.949-1.166-1.949-.704 0-.942.779-1.25 1.794l-.075-4.053s.388-1.916 1.325-1.948c1.166-.039 1.748 3.431 1.748 3.431l-.582 2.725"/></clipPath><linearGradient id="V" gradientTransform="translate(350.395 286.779) scale(3.0732)" gradientUnits="userSpaceOnUse" x2="1"><stop offset="0" stop-color="#787c7d"/><stop offset="1" stop-color="#a1a3a3"/></linearGradient><clipPath id="W"><path d="M0 0h596v596H0z"/></clipPath><clipPath id="X"><path d="M358.734 331.054c-2.656.081-16.509.476-20.892 1.978a5.943 5.943 0 0 0-1.173.63l2.425 2.148c.341-.25.704-.466 1.092-.642 3.525-1.583 8.217-1.819 13.308-2.451"/></clipPath><linearGradient id="Y" gradientTransform="matrix(8.1802 -8.0553 8.0553 8.1802 342.259 337.717)" gradientUnits="userSpaceOnUse" x2="1"><stop offset="0" stop-color="#ebeae7"/><stop offset="1" stop-color="#8d8f8f"/></linearGradient><clipPath id="Z"><path d="M361.474 329.155c-2.585-.079-16.985-1.347-20.823-1.583-3.827-.236-5.163-2.69-5.712-3.799-.548-1.106-2.107-8.783-2.268-9.417-.157-.63-.395-1.897-.783-1.897v-5.066c.861 0 1.881 4.271 1.881 4.271s2.108 9.101 3.676 10.763c1.567 1.66 1.798 2.292 8.767 3.401 5.396.861 10.745 1.813 15.319 2.198l-.057 1.129"/></clipPath><linearGradient id="aa" gradientTransform="rotate(39.37 -272.941 624.58) scale(29.736)" gradientUnits="userSpaceOnUse" x2="1"><stop offset="0" stop-color="#86898a"/><stop offset="1" stop-color="#8d8f8f"/></linearGradient><clipPath id="ab"><path d="M318.351 328.046s4.694-.233 6.567-1.105c1.886-.871 3.526-1.822 3.992-3.722.475-1.897 2.036-8.704 2.194-9.336.154-.632.391-1.423.783-1.423.388 0 .625 1.267.783 1.897l1.098-2.691s-1.02-4.271-1.881-4.271c-.862 0-1.876 4.037-1.876 4.037s-2.115 7.278-2.97 9.731c-.868 2.453-2.354 3.087-4.545 3.88-.833.302-2.467.615-4.276.901l.131 2.102"/></clipPath><linearGradient id="ac" gradientTransform="scale(22.0916) rotate(-60.036 19.975 -5.445)" gradientUnits="userSpaceOnUse" x2="1"><stop offset="0" stop-color="#d2d4d1"/><stop offset="1" stop-color="#9b9e9d"/></linearGradient><clipPath id="ad"><path d="M331.104 313.883c.156-.632.392-1.423.784-1.423.299 0 .502.708.646 1.332l.212-5.324c-.279-.616-.575-1.073-.858-1.073-.28 0-.578.433-.859 1.019l.075 5.469"/></clipPath><linearGradient id="ae" gradientTransform="translate(330.757 310.639) scale(2.3354)" gradientUnits="userSpaceOnUse" x2="1"><stop offset="0" stop-color="#8a8d8d"/><stop offset="1" stop-color="#919393"/></linearGradient><clipPath id="af"><path d="M322.496 325.042c-2.19.791-9.861 1.661-11.818 1.899-1.957.238-13.694 1.423-13.776 3.006-.083 1.584 14.245 2.691 14.245 2.691l.393-1.503c-2.351-.318-4.301-.241-4.301-1.029 0-.794 1.483-1.347 4.38-1.506 2.898-.159 6.733-.554 6.733-.554s4.694-.233 6.567-1.105l-2.423-1.899"/></clipPath><linearGradient id="ag" gradientTransform="scale(16.319) rotate(-30.256 46.837 -24.798)" gradientUnits="userSpaceOnUse" x2="1"><stop offset="0" stop-color="#9b9e9d"/><stop offset="1" stop-color="#d2d4d1"/></linearGradient><clipPath id="ah"><path d="M296.902 329.947c-.083 1.584 14.245 2.691 14.245 2.691 7.279.712 11.349 1.58 13.772 3.085 2.435 1.505 4.075 7.596 4.704 9.657.625 2.055 1.638 4.43 2.19 4.43.544 0 1.178-1.505 2.111-4.67l-.783-3.322c-.47 2.848-.703 3.563-1.407 3.563-.708 0-1.177-2.141-1.566-4.038-.395-1.899-.98-7.149-4.696-8.309-4.07-1.263-6.34-1.659-13.932-1.897-2.351-.318-4.301-.241-4.301-1.028l-10.337-.162"/></clipPath><linearGradient id="ai" gradientTransform="translate(296.901 339.879) scale(37.0229)" gradientUnits="userSpaceOnUse" x2="1"><stop offset="0" stop-color="#9b9e9d"/><stop offset="1" stop-color="#fff"/></linearGradient><clipPath id="aj"><path d="M337.842 333.032c-2.511 1.031-3.835 3.246-4.701 8.784-.47 2.848-.703 3.563-1.407 3.563l.079 4.43c.544 0 1.178-1.505 2.111-4.67.936-3.165 2.738-8.384 6.262-9.97l-2.344-2.137"/></clipPath><linearGradient id="ak" gradientTransform="scale(17.307) rotate(-62.031 26.22 -5.945)" gradientUnits="userSpaceOnUse" x2="1"><stop offset="0" stop-color="#c0bfbe"/><stop offset="1" stop-color="#fff"/></linearGradient><clipPath id="al"><path d="M393.701 322.612c.732 3.678 2.39 4.291 4.289 5.149 1.904.859 7.298 1.044 8.335 1.044 1.043 0 3.491.549 3.491 1.409l8.593-.153c0-.933-4.59-1.402-4.59-1.402s-12.392-1.4-14.884-2.96c-1.872-1.168-3.173-2.073-4.496-6.003l-.738 2.916"/></clipPath><linearGradient id="am" gradientTransform="rotate(-167.093 222.66 140.186) scale(20.1402)" gradientUnits="userSpaceOnUse" x2="1"><stop offset="0" stop-color="#acaeae"/><stop offset="1" stop-color="#8a8d8d"/></linearGradient><clipPath id="an"><path d="M396.641 333.154c3.067-1.102 7.722-1.469 9.625-1.592 1.902-.122 3.55-.492 3.55-1.348 0-.861-2.447-1.409-3.49-1.409l7.494-.146s4.59.469 4.59 1.402c0 .936-1.091 1.246-4.515 1.717-3.428.464-10.055 2.023-14.259 2.96l-2.995-1.584"/></clipPath><linearGradient id="ao" gradientTransform="rotate(-45 606.442 -320.808) scale(7.914)" gradientUnits="userSpaceOnUse" x2="1"><stop offset="0" stop-color="#e1e2df"/><stop offset="1" stop-color="#b2b4b1"/></linearGradient><clipPath id="ap"><path d="M400.26 332.246c-1.278.228-2.546.523-3.619.908-3.059 1.106-3.708 6.494-3.708 6.494-.154.622-.625 3.038-1.48 3.038-.858 0-1.558-3.197-2.025-6.001l-2.108 1.325c1.484 3.427 2.961 8.415 4.058 8.493 1.087.076 2.8-5.455 2.8-5.455s1.246-5.376 5.458-6.31a232.42 232.42 0 0 0 2.267-.512l-1.643-1.98"/></clipPath><linearGradient id="aq" gradientTransform="scale(15.9793) rotate(-66.436 28.679 -7.926)" gradientUnits="userSpaceOnUse" x2="1"><stop offset="0" stop-color="#d7d9d6"/><stop offset="1" stop-color="#e1e2df"/></linearGradient><clipPath id="ar"><path d="M391.378 346.502c-1.097-.077-2.574-5.066-4.057-8.493-1.476-3.427-6.149-4.208-8.64-4.597-2.495-.389-6.47-1.481-12.86-1.634-6.387-.159-12.429 1.008-12.429 1.008l-.894-1.487c2.88-.148 5.277-.215 6.236-.245 0 0 8.257-.134 12.537.1 4.29.235 11.851 1.012 13.559 1.399 1.712.393 4.129 1.329 4.6 4.132.466 2.804 1.167 6.001 2.024 6.001l-.076 3.816"/></clipPath><linearGradient id="as" gradientTransform="translate(352.498 338.759) scale(38.9561)" gradientUnits="userSpaceOnUse" x2="1"><stop offset="0" stop-color="#8d8f8f"/><stop offset="1" stop-color="#dadbd8"/></linearGradient><clipPath id="at"><path d="M390.742 341.954c.223.457.459.732.711.732.293 0 .538-.28.739-.673v3.796c-.283.436-.567.713-.814.693-.251-.016-.514-.284-.797-.727l.161-3.821"/></clipPath><linearGradient id="au" gradientTransform="translate(390.608 344.228) scale(1.5871)" gradientUnits="userSpaceOnUse" x2="1"><stop offset="0" stop-color="#dddeda"/><stop offset="1" stop-color="#dadbd8"/></linearGradient><clipPath id="av"><path d="M394.979 321.134c-.622-1.487-1.227-3.541-1.891-6.5-.701-2.182-.855-3.192-1.56-3.192-.375 0-.882 1.011-1.492 2.694l.23 4.003s.244-1.962 1.231-1.962c.98 0 1.098 1.53 1.098 1.53s.37 1.227 1.106 4.905c.154.789.355 1.435.588 1.973l.69-3.451"/></clipPath><linearGradient id="aw" gradientTransform="translate(390.036 318.013) scale(4.9434)" gradientUnits="userSpaceOnUse" x2="1"><stop offset="0" stop-color="#aeb1af"/><stop offset="1" stop-color="#757b7c"/></linearGradient><clipPath id="ax"><path d="M389.473 321.647c-.37 1.464-.805 2.958-1.165 3.541-.796 1.287-1.718 3.126-9.257 3.369-7.543.248-10.882.766-17.577.598-.898-.021-3.213-.19-6.013-.409l.154-1.35c3.492.51 6.752.873 9.541.867 3.706-.01 6.657-.305 13.595-1.318 6.937-1.015 8.106-2.339 9.506-7.168l1.216 1.87"/></clipPath><linearGradient id="ay" gradientTransform="translate(355.461 324.483) scale(34.0117)" gradientUnits="userSpaceOnUse" x2="1"><stop offset="0" stop-color="#8d8f8f"/><stop offset="1" stop-color="#c9cac8"/></linearGradient><clipPath id="az"><path d="M388.682 324.354c.739-2.037 1.583-6.215 1.583-6.215s.244-1.962 1.231-1.962l.031-4.735c-.7 0-1.87 3.506-3.27 8.335-.305 1.042-.592 1.923-.936 2.671l1.361 1.906"/></clipPath><linearGradient id="aA" gradientTransform="rotate(137.121 134.516 234.783) scale(10.0449)" gradientUnits="userSpaceOnUse" x2="1"><stop offset="0" stop-color="#2c2d2e"/><stop offset="1" stop-color="#c9cac8"/></linearGradient><clipPath id="aB"><path d="M299.093 328.764c-1.297.359-2.166.756-2.191 1.183-.017.411.93.791 2.348 1.124l9.331-.262c-.825-.12-1.343-.297-1.343-.702 0-.277.176-.524.538-.736l-8.683-.607"/></clipPath><linearGradient id="aC" gradientTransform="rotate(-90 316.839 14.098) scale(1.971)" gradientUnits="userSpaceOnUse" x2="1"><stop offset="0" stop-color="#b2b4b1"/><stop offset="1" stop-color="#9b9e9d"/></linearGradient><clipPath id="aD"><path d="M331.324 345.12c.126.165.262.259.409.259a.648.648 0 0 0 .521-.229l.055 4.276c-.173.255-.338.382-.496.382-.158 0-.344-.187-.552-.501l.063-4.187"/></clipPath><linearGradient id="aE" gradientTransform="translate(331.261 347.465) scale(1.0479)" gradientUnits="userSpaceOnUse" x2="1"><stop offset="0" stop-color="#fff"/><stop offset="1" stop-color="#b9b9b8"/></linearGradient><clipPath id="aF"><path d="M0 0h596v596H0z"/></clipPath><clipPath id="aG"><path d="M239.767 349.854c-2.338 1.673-4.94 2.266-7.339 2.724-5.488 1.055-26.412 3.157-26.412 3.157l-20.685 1.752s-3.979.352-3.979 1.286c0 .935 3.979 1.053 3.979 1.053l-14.027.117s-3.041-.117-3.041-1.288c0-1.168 2.575-1.168 3.508-1.285.936-.116 19.167-2.57 19.167-2.57s29.104-3.975 31.904-4.442c2.808-.468 10.638-1.518 14.027-4.559l2.898 4.055"/></clipPath><linearGradient id="aH" gradientTransform="rotate(-8.746 2425.822 -1028.251) scale(64.5651)" gradientUnits="userSpaceOnUse" x2="1"><stop offset="0" stop-color="#9b9e9d"/><stop offset="1" stop-color="#ecedeb"/></linearGradient><clipPath id="aI"><path d="M252.846 401.201s-.396 2.724-1.723 2.724c-1.315 0-1.706-3.036-1.706-3.036s-5.302-17.222-7.797-22.362c-2.493-5.142-4.284-9.974-25.084-12.31-18.468-2.416-28.168-3.936-28.168-3.936l-17.063-2.337s-3.041-.117-3.041-1.288l13.09.117c0 .935 3.979 1.053 3.979 1.053l15.659 1.402s17.767 1.464 26.297 2.337c8.53.878 14.842 5.668 17.175 10.519 2.34 4.85 4.971 19.692 4.971 19.692s.463 4.793 1.688 4.793c1.234 0 1.582-4.674 1.582-4.674l.141 7.306"/></clipPath><linearGradient id="aJ" gradientTransform="translate(168.264 381.291) scale(84.582)" gradientUnits="userSpaceOnUse" x2="1"><stop offset="0" stop-color="#9b9e9d"/><stop offset="1" stop-color="#b9b9b8"/></linearGradient><clipPath id="aK"><path d="M287.108 366.242c-4.247.538-11.244 1.518-14.088 2.466-4.203 1.402-10.363 1.638-15.114 16.52-4.753 14.881-5.061 15.973-5.061 15.973s-.396 2.724-1.723 2.724c-1.315 0-1.706-3.036-1.706-3.036l.018-7.112s.463 4.793 1.688 4.793c.818 0 1.249-2.043 1.446-3.427.097-.71.148-1.162.148-1.162s.057-.373.173-.88c.631-2.806 2.802-12.29 3.794-16.152 1.163-4.56 4.379-9.233 9.577-11.397 5.202-2.163 17.653-2.922 19.871-2.98l.977 3.67"/></clipPath><linearGradient id="aL" gradientTransform="translate(249.416 383.249) scale(37.6924)" gradientUnits="userSpaceOnUse" x2="1"><stop offset="0" stop-color="#c6c7c5"/><stop offset="1" stop-color="#ebeae7"/></linearGradient><clipPath id="aM"><path d="M250.083 397.151c.259.795.604 1.418 1.039 1.418.462 0 .796-.642 1.033-1.45l.097 5.943c-.262.481-.625.863-1.13.863-.46 0-.809-.374-1.063-.863l.024-5.911"/></clipPath><linearGradient id="aN" gradientTransform="translate(250.059 400.522) scale(2.1934)" gradientUnits="userSpaceOnUse" x2="1"><stop offset="0" stop-color="#cdcfcc"/><stop offset="1" stop-color="#d2d4d1"/></linearGradient><clipPath id="aO"><path d="M375.991 370.616c-.315 1.637-.506 3.08-1.288 3.08-.783 0-1.135-1.91-1.363-3.12-.235-1.207-.97-6.349-2.998-7.712-2.029-1.365-5.924-2.375-10.52-2.61-4.595-.235-14.3-.622-16.908-.622l.782.972c3.117.079 7.245.935 15.115 1.714 7.87.779 9.66 2.884 11.139 4.988 1.48 2.104 3.35 8.571 3.35 8.571s.467 2.259 1.403 2.259c.934 0 1.245-1.869 1.245-1.869l.043-5.651"/></clipPath><linearGradient id="aP" gradientTransform="rotate(-118.25 294.98 78.75) scale(15.389)" gradientUnits="userSpaceOnUse" x2="1"><stop offset="0" stop-color="#c9cac8"/><stop offset="1" stop-color="#9fa1a1"/></linearGradient><clipPath id="aQ"><path d="M382.598 361.239c1.673-.373 3.43-.489 4.724-.593 2.416-.196 7.446-.743 7.446-.743s2.807-.232 2.807-1.051c0-.818-2.692-1.131-2.692-1.131l8.574-.311s3.504.078 3.504 1.405c0 1.324-3.741 1.399-3.741 1.399l-15.897 2.572s-.705.05-1.709.277l-3.016-1.824"/></clipPath><linearGradient id="aR" gradientTransform="scale(11.5836) rotate(-80.313 35.634 -4.448)" gradientUnits="userSpaceOnUse" x2="1"><stop offset="0" stop-color="#fff"/><stop offset="1" stop-color="#e7e7e5"/></linearGradient><clipPath id="aS"><path d="M378.946 354.567c-1.752-1.517-2.33-6.389-2.491-7.325-.154-.935-.854-4.05-.854-4.05s-.273-1.522-.855-1.522l-.2-4.985c.857 0 1.402 2.104 1.402 2.104s2.572 8.883 3.508 11.142c.305.742.713 1.45 1.368 2.097l-1.878 2.539"/></clipPath><linearGradient id="aT" gradientTransform="scale(-27.8921) rotate(75.439 1.469 -15.235)" gradientUnits="userSpaceOnUse" x2="1"><stop offset="0" stop-color="#dadbd8"/><stop offset="1" stop-color="#505254"/></linearGradient><clipPath id="aU"><path d="M251.123 312.141c1.41 0 1.525 3.159 1.525 3.159s3.044 18.583 3.504 20.801c.468 2.22 1.986 9.701 5.257 12.506l3.54-3.777c-3.314-3.2-4.344-7.087-5.17-9.43-1.404-3.974-7.13-26.764-7.13-26.764s-.347-3.037-1.525-3.037v6.542h-.001"/></clipPath><linearGradient id="aV" gradientTransform="scale(-42.5252) rotate(73.557 2.34 -8.161)" gradientUnits="userSpaceOnUse" x2="1"><stop offset="0" stop-color="#b2b4b1"/><stop offset="1" stop-color="#909291"/></linearGradient><clipPath id="aW"><path d="M252.647 315.299s-.114-3.159-1.525-3.159c-1.397 0-1.397 3.159-1.397 3.159s-1.286 6.893-3.271 20.684c-1.992 13.791-8.534 15.545-14.027 16.595l-.818-4.101c2.054-.654 3.974-1.523 5.259-2.676 3.39-3.038 6.312-9.583 8.416-19.282 2.101-9.703 4.321-17.999 4.321-17.999s.353-2.921 1.517-2.921c1.177 0 1.525 3.037 1.525 3.037v6.663"/></clipPath><linearGradient id="aX" gradientTransform="scale(40.935) rotate(-79.139 7.966 .599)" gradientUnits="userSpaceOnUse" x2="1"><stop offset="0" stop-color="#aaadaa"/><stop offset="1" stop-color="#b9b9b8"/></linearGradient><clipPath id="aY"><path d="M249.926 307.065c.233-.732.614-1.466 1.196-1.466.534 0 .9.63 1.137 1.318l.047 6.435c-.223-.647-.586-1.211-1.184-1.211-.625 0-.977.644-1.164 1.347l-.032-6.423"/></clipPath><linearGradient id="aZ" gradientTransform="translate(250.193 309.544) scale(1.8725)" gradientUnits="userSpaceOnUse" x2="1"><stop offset="0" stop-color="#8d8f8f"/><stop offset="1" stop-color="#969897"/></linearGradient><clipPath id="ba"><path d="M185.332 357.488s-3.979.352-3.979 1.286c0 .935 3.979 1.053 3.979 1.053l-14.027.117s-3.041-.117-3.041-1.288c0-1.168 2.575-1.168 3.508-1.285l13.56.117"/></clipPath><linearGradient id="bb" gradientTransform="rotate(-90 268.429 91.631) scale(2.7269)" gradientUnits="userSpaceOnUse" x2="1"><stop offset="0" stop-color="#9b9e9d"/><stop offset="1" stop-color="#919393"/></linearGradient><clipPath id="bc"><path d="M264.563 344.445c2.309 2.395 5.812 4.467 11.34 5.329 12.738 1.987 36.465 4.675 36.465 4.675s12.045 1.458 21.738 2.098l.123 1.409c-4.56 0-36.587-2.805-51.781-3.856-15.194-1.052-17.76-2.689-21.041-5.494l3.156-4.161"/></clipPath><linearGradient id="bd" gradientTransform="rotate(24.912 -634.022 777.625) scale(61.6074)" gradientUnits="userSpaceOnUse" x2="1"><stop offset="0" stop-color="#b2b4b1"/><stop offset="1" stop-color="#46484a"/></linearGradient><clipPath id="be"><path d="M368.643 352.201c-1.785 2.021-4.382 2.324-6.132 2.6-2.222.35-11.108 1.518-19.049 1.987-2.698.158-7.144-.059-11.847-.416l-.154 1.469c1.268.076 2.218.115 2.768.115 4.552 0 11.338 0 17.646-.469 6.31-.467 13.675-.583 17.063-2.104.775-.354 1.396-.964 1.892-1.699l-2.187-1.483"/></clipPath><linearGradient id="bf" gradientTransform="rotate(169.522 168.419 193.195) scale(23.1367)" gradientUnits="userSpaceOnUse" x2="1"><stop offset="0" stop-color="#b4b7b5"/><stop offset="1" stop-color="#46484a"/></linearGradient><clipPath id="bg"><path d="M368.19 352.661c.672-.614 1.253-1.421 1.685-2.496 1.554-3.896 3.27-11.22 3.27-11.22s.545-2.26 1.4-2.26c.857 0 1.402 2.104 1.402 2.104l-.347 4.403s-.273-1.522-.855-1.522c-.588 0-.704.819-.937 1.522-.24.7-.666 2.962-.897 4.01-.197.878-.635 4.975-2.599 7.151l-2.122-1.692"/></clipPath><linearGradient id="bh" gradientTransform="scale(18.8712) rotate(-76.747 21.708 -2.957)" gradientUnits="userSpaceOnUse" x2="1"><stop offset="0" stop-color="#c9cac8"/><stop offset="1" stop-color="#3f4043"/></linearGradient><clipPath id="bi"><path d="M373.145 338.945s.545-2.26 1.4-2.26c.857 0 1.402 2.104 1.402 2.104l-.347 4.403s-.273-1.522-.855-1.522c-.588 0-.704.819-.937 1.522l-.663-4.247"/></clipPath><linearGradient id="bj" gradientTransform="translate(373.532 339.939) scale(2.1813)" gradientUnits="userSpaceOnUse" x2="1"><stop offset="0" stop-color="#3d3d40"/><stop offset="1" stop-color="#414245"/></linearGradient><clipPath id="bk"><path d="M380.44 351.608c.134.162.28.318.443.472 1.346 1.3 3.71 2.345 8.313 2.916 6.936.858 14.261 2.413 14.261 2.413s3.504.078 3.504 1.404l-9.385.037c0-.818-2.691-1.131-2.691-1.131s-2.453-.622-7.052-.933c-4.594-.312-7.128-.702-8.885-2.221a2.754 2.754 0 0 1-.28-.289l1.772-2.668"/></clipPath><linearGradient id="bl" gradientTransform="scale(19.1695) rotate(13.273 -69.356 94.483)" gradientUnits="userSpaceOnUse" x2="1"><stop offset="0" stop-color="#e1e2df"/><stop offset="1" stop-color="#c5c4c2"/></linearGradient><clipPath id="bm"><path d="M396.311 359.651c.646-.162 1.264-.414 1.264-.799 0-.263-.284-.473-.661-.639l9.425-.219c.364.2.621.465.621.821 0 .771-1.275 1.119-2.334 1.274l-8.315-.438"/></clipPath><linearGradient id="bn" gradientTransform="matrix(-.029 1.5916 -1.5916 -.029 401.657 358.019)" gradientUnits="userSpaceOnUse" x2="1"><stop offset="0" stop-color="#c1c0bf"/><stop offset="1" stop-color="#414245"/></linearGradient><clipPath id="bo"><path d="M374.703 373.697c.782 0 .973-1.443 1.288-3.08.31-1.635.777-5.803 2.841-7.673 1.099-.991 2.738-1.521 4.4-1.831l3.071 1.813c-1.878.328-5.776 1.382-7 4.536-1.637 4.208-3.354 8.806-3.354 8.806s-.311 1.869-1.245 1.869v-4.44h-.001"/></clipPath><linearGradient id="bp" gradientTransform="scale(-15.5522) rotate(-66.841 -29.936 7.013)" gradientUnits="userSpaceOnUse" x2="1"><stop offset="0" stop-color="#fff"/><stop offset="1" stop-color="#444547"/></linearGradient><clipPath id="bq"><path d="M374.036 377.713c.184.251.408.423.667.423.305 0 .545-.202.729-.472l-.029-4.588c-.168.388-.383.621-.7.621-.295 0-.528-.271-.714-.669l.047 4.685"/></clipPath><linearGradient id="br" gradientTransform="translate(373.492 375.582) scale(2.066)" gradientUnits="userSpaceOnUse" x2="1"><stop offset="0" stop-color="#cdcfcc"/><stop offset="1" stop-color="#3f4043"/></linearGradient><clipPath id="bs"><path d="M350.125 361.287c-2.739-.365-4.735-.638-6.43-.682-3.121-.078-9.589-.078-14.73.544-5.138.623-38.41 4.676-38.41 4.676s-2.017.224-4.732.581l-.1-3.893c2.217-.058 33.348-2.259 38.298-2.493 4.944-.236 16.283-.387 18.892-.387 1.27 0 4.219.09 7.441.21l-.229 1.444"/></clipPath><linearGradient id="bt" gradientTransform="scale(62.4565) rotate(-4.078 84.275 -60.352)" gradientUnits="userSpaceOnUse" x2="1"><stop offset="0" stop-color="#e5e4e2"/><stop offset="1" stop-color="#9fa1a1"/></linearGradient><clipPath id="bu"><path d="M390.265 318.139s.244-1.962 1.231-1.962c.98 0 1.097 1.53 1.097 1.53l.494-3.073c-.701-2.182-.855-3.192-1.56-3.192-.376 0-.881 1.011-1.492 2.694l.23 4.003"/></clipPath><linearGradient id="bv" gradientTransform="translate(390.035 314.791) scale(3.0518)" gradientUnits="userSpaceOnUse" x2="1"><stop offset="0" stop-color="#3d3d40"/><stop offset="1" stop-color="#666a6c"/></linearGradient><clipPath id="bw"><path d="M200.991 361.229l-15.659-1.403s-3.979-.118-3.979-1.053c0-.934 3.979-1.286 3.979-1.286l20.685-1.752s20.923-2.103 26.412-3.157c5.493-1.05 12.035-2.804 14.027-16.595 1.984-13.791 3.271-20.684 3.271-20.684s0-3.159 1.397-3.159c1.41 0 1.525 3.159 1.525 3.159s3.044 18.583 3.504 20.801c.468 2.22 1.986 9.701 5.257 12.506 3.281 2.806 5.848 4.444 21.042 5.494 15.193 1.051 47.22 3.856 51.779 3.856 4.552 0 11.338 0 17.646-.469 6.31-.467 13.675-.583 17.062-2.104 3.157-1.439 3.738-7.129 3.975-8.182.231-1.048.657-3.31.899-4.01.232-.703.347-1.522.935-1.522.582 0 .855 1.522.855 1.522s.7 3.115.854 4.05c.161.936.739 5.807 2.491 7.325 1.756 1.519 4.29 1.909 8.885 2.221 4.599.311 7.051.933 7.051.933s2.692.312 2.692 1.131-2.807 1.051-2.807 1.051-5.03.547-7.446.743c-2.413.192-6.423.427-8.49 2.297-2.064 1.871-2.531 6.039-2.841 7.674-.315 1.637-.506 3.08-1.288 3.08-.783 0-1.135-1.91-1.363-3.12-.235-1.207-.97-6.349-2.998-7.712-2.029-1.365-5.924-2.375-10.52-2.61-4.595-.235-14.3-.622-16.908-.622-2.609 0-13.948.151-18.892.387-4.95.235-35.667 2.492-37.89 2.552-2.218.058-14.669.816-19.871 2.98-5.198 2.162-8.414 6.836-9.577 11.396-1.175 4.556-3.885 17.02-3.885 17.02s-.617 4.642-1.676 4.6c-1.222-.051-1.688-4.793-1.688-4.793s-2.631-14.842-4.971-19.692c-2.333-4.85-8.645-9.641-17.174-10.519-8.534-.871-26.3-2.334-26.3-2.334"/></clipPath><radialGradient id="bx" spreadMethod="pad" gradientTransform="translate(239.148 367.396) scale(111.204)" gradientUnits="userSpaceOnUse" r="1" cy="0" cx="0" fy="0" fx="0"><stop offset="0" stop-color="#fff"/><stop offset="1" stop-color="#5b5e60"/></radialGradient><clipPath id="by"><path d="M361.474 329.155c-2.585-.065-16.985-1.347-20.823-1.583-3.827-.236-5.163-2.69-5.712-3.799-.548-1.106-2.107-8.783-2.268-9.417-.157-.63-.395-1.897-.783-1.897-.392 0-.627.791-.784 1.423-.156.632-1.718 7.439-2.193 9.336-.466 1.9-2.106 2.851-3.992 3.722-1.873.872-6.567 1.105-6.567 1.105s-3.835.395-6.733.554c-2.898.16-4.38.713-4.38 1.506 0 .788 1.95.711 4.301 1.029 7.593.236 9.862.634 13.932 1.897 3.716 1.16 4.301 6.411 4.696 8.31.389 1.897.858 4.036 1.566 4.036.704 0 .937-.713 1.407-3.562.866-5.539 2.19-7.754 4.701-8.784 4.383-1.502 18.236-1.897 20.892-1.978 0 0 8.257-.134 12.537.1 4.29.235 11.851 1.012 13.559 1.399 1.712.393 4.129 1.329 4.6 4.132.466 2.804 1.167 6.001 2.024 6.001.854 0 1.325-2.416 1.48-3.038 0 0 .649-5.388 3.708-6.494 3.067-1.102 7.722-1.469 9.625-1.592 1.902-.122 3.551-.492 3.551-1.348 0-.861-2.448-1.409-3.491-1.409-1.037 0-6.432-.185-8.335-1.044-1.899-.86-3.557-1.471-4.289-5.149-.736-3.678-1.106-4.905-1.106-4.905s-.118-1.53-1.098-1.53c-.987 0-1.231 1.962-1.231 1.962s-1.164 5.762-1.957 7.049c-.797 1.287-1.719 3.126-9.258 3.369-7.545.249-10.884.768-17.579.599"/></clipPath><linearGradient id="bz" gradientTransform="scale(42.448) rotate(-53.509 12.107 -4.15)" gradientUnits="userSpaceOnUse" x2="1"><stop offset="0" stop-color="#a1a3a3"/><stop offset="1" stop-color="#7b7e7f"/></linearGradient><clipPath id="bA"><path d="M274.813 299.207s4.677-.232 6.547-1.09c1.868-.857 3.505-1.793 3.972-3.663.466-1.867 2.028-8.569 2.182-9.193.154-.623.391-1.403.779-1.403s.623 1.246.779 1.87c.158.623 1.713 8.182 2.262 9.271.546 1.093 1.87 3.506 5.687 3.741 3.816.233 18.155 1.483 20.726 1.558 2.569.077 17.533-.39 21.115-.701 3.582-.311 8.645-.623 9.817-3.428 1.17-2.806 1.478-5.452 1.79-6.467.308-1.015.546-1.794 1.25-1.794.7 0 1.011 1.249 1.166 1.949.154.702 1.012 8.261 5.066 9.041 4.053.777 10.361 1.321 11.764 1.4 1.404.077 2.567.155 2.567 1.169 0 1.013-1.791 1.013-2.962 1.013-1.163 0-8.718.389-11.684 1.557-2.958 1.167-4.05 3.196-4.751 7.637-.237 1.325-.779 2.493-1.403 2.493-.622 0-1.167-1.481-1.403-2.573-.23-1.089-.15-4.906-2.645-6.543-2.493-1.636-5.146-2.182-13.794-2.65a232.817 232.817 0 0 0-18.619-.234c-2.652.08-16.441.469-20.804 1.95-2.495 1.011-3.82 3.191-4.678 8.649-.467 2.804-.7 3.506-1.399 3.506-.705 0-1.171-2.104-1.563-3.974-.388-1.871-.969-7.042-4.669-8.18-4.054-1.248-6.312-1.637-13.869-1.87-2.338-.313-4.29-.236-4.29-1.014 0-.78 1.483-1.324 4.365-1.482 2.882-.154 6.699-.545 6.699-.545"/></clipPath><linearGradient id="bB" gradientTransform="scale(-16.1467) rotate(-36.762 -36.733 23.914)" gradientUnits="userSpaceOnUse" x2="1"><stop offset="0" stop-color="#e1e2df"/><stop offset="1" stop-color="#787c7d"/></linearGradient><clipPath id="bC"><path d="M409.461 330.826c.234-.17.355-.371.355-.612 0-.363-.434-.672-1.022-.908l7.122-.336c1.209.236 2.494.598 2.494 1.092 0 .68-.57 1.027-2.189 1.349l-6.76-.585"/></clipPath><linearGradient id="bD" gradientTransform="rotate(-90 372.368 -41.233) scale(1.8713)" gradientUnits="userSpaceOnUse" x2="1"><stop offset="0" stop-color="#b9b9b8"/><stop offset="1" stop-color="#b4b7b5"/></linearGradient></defs><g clip-path="url(#a)" transform="matrix(1.33333 0 0 -1.33333 0 794.667)"><path d="M.06 0h595.22v595.28H.06z" fill="#fff"/></g><g clip-path="url(#b)" transform="matrix(1.33333 0 0 -1.33333 0 794.667)"><path d="M134.909 232.149c4.39-.562 8.882-1.311 11.498-5.517 2.244-3.179 2.151-7.294 2.338-11.406h-13.836c0 1.586 0 3.085-.749 4.299-2.991 2.245-7.2 1.215-11.035 1.497-7.699-.045-14.958.186-22.066-.56-.839-.281-1.868-1.312-2.146-2.151-.284-1.311-.284-2.901.839-3.833l1.496-1.126c12.153-1.028 23.936-1.216 36.182-2.152 4.111-.557 8.226-2.146 10.566-6.168 3.459-6.078 2.8-15.615-1.59-21.131-3.271-3.832-7.851-4.485-12.623-4.581-11.595-.562-23.934-.75-35.436.187-4.018.465-7.759 1.683-10.379 5.143-2.337 3.737-2.692 8.534-2.781 13.21l13.909-.12c-.092-2.341-.092-4.772 2.151-5.983 10.754-.752 22.625-.936 33.284.185 1.027.375 1.78 1.495 2.056 2.524.285 1.87-.09 3.645-1.679 4.675l-2.339.559-34.782 2.059c-4.768.748-10.192 3.178-11.781 8.322-1.402 5.047-1.588 11.22 1.59 15.52 5.889 8.133 16.364 6.077 25.34 6.919l21.973-.371M169.283 195.618c.564-1.215 1.59-2.617 2.896-3.275 9.357-.933 20.478-1.397 29.647.47 1.494.842 2.427 2.431 2.33 4.206v35.157l14.256.009-.187-40.392c-.75-4.019-2.168-8.123-6.957-11.323-2.998-1.87-6.735-1.961-10.383-2.059l-32.723.191c-4.488.373-8.975 4.019-11.126 8.229l-1.4 4.208-.19 41.138h13.649l.188-36.559M446.446 195.52c.565-1.214 1.493-2.616 2.812-3.269 8.971-1.123 19.257-.936 28.325-.19 1.312.281 2.432 1.402 3.271 2.524l.377 1.963v35.528l14.043-.044v-40.679c-.739-3.927-2.784-8.064-6.712-10.215-2.991-1.87-6.867-2.344-10.516-2.439l-32.723.187c-4.488.374-9.065 3.638-11.219 7.848-.934 2.241-1.498 4.767-1.586 7.478v37.864l13.99-.044-.062-36.512M409.328 210.59l-.843-.017-30.44-.076.054 9.895 30.58-.189c1.209-.466 2.422-1.307 2.893-2.522.278-1.966 1.253-5.436-2.244-7.091zm11.137-6.444l1.931 1.382c5.335 6.257 3.855 14.395 1.145 20.194-3.905 6.124-8.875 6.034-11.175 6.31l-48.102.047-.118-53.15h14.08l.053 18.839.008.097h28.329c5.435-.594 5.751-4.115 5.838-8.9 0-3.408.053-7.179.053-10.081h13.932c.003 9.435 1.77 20.5-5.974 25.262M313.772 199.268c2.906 6.455 6.647 12.439 9.639 18.797 3.645-5.892 6.356-12.436 9.816-18.607zm18.167 32.764l-16.016.047-29.076-53.38h16.084c1.679 3.085 3.059 5.938 5.143 9.35h30.944c2.025-3.321 3.317-5.894 5.066-9.116l16.653-.092-28.798 53.191M272.16 192.345c-2.248-1.682-5.336-1.589-8.322-1.492-8.042.093-16.177-.19-24.223.186v9.817l29.831-.185c1.311-.47 2.714-1.124 3.461-2.526.653-1.777.653-4.303-.747-5.8zm-32.727 28.145l30.2-.186c1.027-.376 2.337-1.216 2.715-2.34.279-1.495.279-3.365-.937-4.393-.934-1.122-2.249-1.31-3.458-1.592h-28.52zm42.61-13.09c5.051 3.179 4.865 10.007 3.838 15.333-1.124 4.863-6.357 8.695-10.94 9.255l-49.19.08V178.74l.474-.013h43.293c4.02 0 7.947.375 11.312 1.874 4.017 1.961 5.977 6.075 6.734 10.003.749 6.264.274 13.616-5.521 16.796M504.713 179.264h.607c.689 0 1.278.25 1.278.9 0 .458-.333.92-1.278.92a3.71 3.71 0 0 1-.607-.045zm0-2.905h-.83v5.249c.434.061.85.125 1.479.125.796 0 1.321-.17 1.635-.399.313-.228.481-.587.481-1.089 0-.689-.46-1.108-1.024-1.276v-.04c.46-.085.773-.503.878-1.277.124-.814.25-1.127.332-1.293h-.879c-.126.166-.248.646-.356 1.336-.122.669-.456.919-1.124.919h-.592zm.879 6.711c-2.068 0-3.762-1.778-3.762-3.976 0-2.237 1.694-3.996 3.783-3.996 2.093-.017 3.765 1.759 3.765 3.976 0 2.218-1.672 3.996-3.765 3.996zm.022.732c2.576 0 4.624-2.093 4.624-4.708 0-2.654-2.045-4.726-4.645-4.726-2.571 0-4.664 2.072-4.664 4.726 0 2.615 2.092 4.708 4.664 4.708h.021" fill="#050606"/><path d="M429.009 340.971c0-38.995-61.18-70.61-136.663-70.61-75.476 0-136.661 31.615-136.661 70.61 0 38.994 61.186 70.606 136.661 70.606 75.483 0 136.663-31.612 136.663-70.606" fill="#214d8c"/><path d="M364.119 361.476c.467-16.83-42.775-57.502-106.589-57.502-63.816 0-105.292 12.16-105.292 47.497 0 35.339 51.779 61.521 115.554 63.985 79.034 3.054 95.336-18.415 96.327-53.98" fill="#214d8c"/><path d="M363.365 361.53c.464-16.753-42.543-57.183-105.996-57.183-63.457 0-104.708 12.108-104.708 47.245 0 35.139 51.486 61.176 114.902 63.625 78.573 3.032 94.818-18.322 95.802-53.687" fill="#214d8c"/><path d="M362.611 361.585c.461-16.676-42.31-56.865-105.403-56.865-63.097 0-104.125 12.055-104.125 46.993 0 34.939 51.194 60.831 114.249 63.262 78.113 3.014 94.303-18.226 95.279-53.39" fill="#214d8b"/><path d="M361.857 361.64c.457-16.599-42.078-56.547-104.811-56.547-62.737 0-103.54 12.002-103.54 46.74 0 34.741 50.902 60.487 113.597 62.902 77.652 2.994 93.783-18.132 94.754-53.095" fill="#214e8d"/><path d="M361.104 361.695c.454-16.523-41.846-56.229-104.219-56.229-62.376 0-102.956 11.949-102.956 46.488 0 34.541 50.609 60.142 112.945 62.541 77.191 2.973 93.265-18.039 94.23-52.8" fill="#214e8d"/><path d="M360.351 361.749c.451-16.445-41.614-55.91-103.627-55.91-62.016 0-102.371 11.896-102.371 46.236 0 34.341 50.316 59.796 112.292 62.18 76.731 2.953 92.747-17.946 93.706-52.506" fill="#214e8d"/><path d="M359.596 361.804c.449-16.369-41.38-55.592-103.033-55.592-61.657 0-101.788 11.843-101.788 45.984 0 34.143 50.026 59.453 111.64 61.818 76.27 2.933 92.229-17.851 93.181-52.21" fill="#214f8e"/><path d="M358.843 361.858c.445-16.291-41.149-55.275-102.442-55.275-61.296 0-101.203 11.792-101.203 45.733 0 33.943 49.733 59.108 110.989 61.457 75.808 2.913 91.71-17.756 92.656-51.915" fill="#205091"/><path d="M358.088 361.914c.441-16.216-40.916-54.956-101.847-54.956-60.935 0-100.621 11.74-100.621 45.481 0 33.743 49.442 58.762 110.337 61.096 75.348 2.891 91.192-17.664 92.131-51.621" fill="#205091"/><path d="M357.335 361.967c.438-16.137-40.685-54.637-101.255-54.637-60.577 0-100.036 11.687-100.036 45.229 0 33.543 49.148 58.417 109.685 60.735 74.886 2.872 90.672-17.569 91.606-51.327" fill="#205192"/><path d="M356.58 362.022c.436-16.061-40.451-54.319-100.663-54.319-60.215 0-99.451 11.634-99.451 44.976 0 33.345 48.857 58.074 109.033 60.375 74.425 2.852 90.156-17.476 91.081-51.032" fill="#205192"/><path d="M355.827 362.077c.433-15.985-40.218-54.001-100.071-54.001-59.855 0-98.867 11.581-98.867 44.724 0 33.145 48.563 57.729 108.38 60.013 73.965 2.833 89.638-17.382 90.558-50.736" fill="#205192"/><path d="M355.071 362.132c.431-15.908-39.984-53.684-99.476-53.684-59.494 0-98.282 11.53-98.282 44.474 0 32.945 48.271 57.384 107.728 59.652 73.503 2.81 89.118-17.288 90.03-50.442" fill="#205293"/><path d="M354.319 362.186c.425-15.831-39.752-53.365-98.885-53.365-59.135 0-97.699 11.478-97.699 44.222 0 32.746 47.98 57.039 107.077 59.29 73.042 2.791 88.601-17.194 89.507-50.147" fill="#205293"/><path d="M353.563 362.241c.424-15.753-39.518-53.046-98.291-53.046-58.775 0-97.115 11.424-97.115 43.969 0 32.547 47.687 56.694 106.423 58.929 72.584 2.77 88.085-17.1 88.983-49.852" fill="#205295"/><path d="M352.811 362.296c.419-15.677-39.287-52.729-97.7-52.729-58.415 0-96.53 11.372-96.53 43.717 0 32.347 47.395 56.349 105.772 58.569 72.121 2.75 87.563-17.006 88.458-49.557" fill="#205295"/><path d="M352.056 362.351c.417-15.601-39.054-52.411-97.106-52.411-58.056 0-95.947 11.319-95.947 43.465 0 32.147 47.102 56.004 105.121 58.207 71.66 2.731 87.045-16.912 87.932-49.261" fill="#1f5496"/><path d="M351.303 362.405c.414-15.523-38.823-52.092-96.513-52.092-57.695 0-95.362 11.266-95.362 43.214 0 31.947 46.811 55.658 104.467 57.846 71.198 2.709 86.527-16.818 87.408-48.968" fill="#1f5598"/><path d="M350.548 362.46c.411-15.447-38.589-51.773-95.921-51.773-57.335 0-94.778 11.214-94.778 42.961 0 31.749 46.519 55.315 103.816 57.486 70.738 2.688 86.011-16.726 86.883-48.674" fill="#1f569a"/><path d="M349.794 362.515c.409-15.37-38.356-51.457-95.328-51.457-56.975 0-94.194 11.163-94.194 42.71 0 31.549 46.227 54.97 103.165 57.124 70.276 2.669 85.49-16.631 86.357-48.377" fill="#1f579a"/><path d="M349.04 362.569c.405-15.293-38.124-51.139-94.736-51.139-56.614 0-93.61 11.11-93.61 42.458 0 31.35 45.935 54.625 102.512 56.763 69.818 2.65 84.974-16.537 85.834-48.082" fill="#1f579a"/><path d="M348.286 362.623c.402-15.215-37.89-50.819-94.142-50.819-56.253 0-93.026 11.058-93.026 42.205 0 31.151 45.642 54.281 101.86 56.403 69.355 2.629 84.456-16.444 85.308-47.789" fill="#1f579a"/><path d="M347.532 362.678c.4-15.139-37.659-50.501-93.55-50.501-55.895 0-92.441 11.004-92.441 41.954 0 30.95 45.349 53.934 101.207 56.04 68.896 2.609 83.937-16.349 84.784-47.493" fill="#1f589c"/><path d="M346.778 362.733c.397-15.061-37.425-50.183-92.958-50.183s-91.856 10.951-91.856 41.702c0 30.75 45.057 53.59 100.555 55.679 68.435 2.589 83.419-16.255 84.259-47.198" fill="#1f589c"/><path d="M346.024 362.787c.392-14.985-37.194-49.864-92.364-49.864-55.175 0-91.274 10.899-91.274 41.45 0 30.553 44.764 53.245 99.903 55.318 67.975 2.568 82.901-16.161 83.735-46.904" fill="#1f589d"/><path d="M345.271 362.842c.389-14.908-36.962-49.547-91.771-49.547-54.814 0-90.69 10.847-90.69 41.198 0 30.353 44.474 52.901 99.251 54.958 67.512 2.547 82.381-16.068 83.21-46.609" fill="#1e599e"/><path d="M344.517 362.897c.385-14.831-36.731-49.229-91.18-49.229-54.453 0-90.105 10.795-90.105 40.946 0 30.154 44.181 52.557 98.599 54.597 67.052 2.527 81.865-15.974 82.686-46.314" fill="#1e5a9f"/><path d="M343.762 362.952c.384-14.755-36.496-48.911-90.586-48.911-54.093 0-89.521 10.742-89.521 40.695s43.889 52.211 97.947 54.234c66.59 2.508 81.346-15.879 82.16-46.018" fill="#1e5aa0"/><path d="M343.009 363.006c.38-14.678-36.265-48.592-89.994-48.592-53.735 0-88.938 10.69-88.938 40.443 0 29.754 43.596 51.866 97.296 53.874 66.129 2.486 80.827-15.786 81.636-45.725" fill="#1e5ba2"/><path d="M342.254 363.061c.377-14.601-36.03-48.275-89.401-48.275-53.373 0-88.352 10.638-88.352 40.191 0 29.555 43.304 51.522 96.642 53.513 65.669 2.468 80.311-15.691 81.111-45.429" fill="#1e5ba3"/><path d="M341.502 363.114c.373-14.524-35.799-47.955-88.809-47.955-53.013 0-87.767 10.585-87.767 39.938 0 29.355 43.012 51.177 95.989 53.151 65.206 2.449 79.791-15.596 80.587-45.134" fill="#1e5ca4"/><path d="M340.746 363.17c.371-14.448-35.565-47.639-88.215-47.639-52.653 0-87.185 10.532-87.185 39.687 0 29.155 42.72 50.832 95.34 52.791 64.746 2.427 79.272-15.504 80.06-44.839" fill="#1e5ca4"/><path d="M339.994 363.224c.367-14.37-35.334-47.319-87.623-47.319-52.294 0-86.601 10.479-86.601 39.435 0 28.956 42.428 50.486 94.685 52.429 64.285 2.407 78.757-15.409 79.539-44.545" fill="#1e5ca5"/><path d="M339.238 363.279c.366-14.293-35.099-47.001-87.029-47.001-51.933 0-86.017 10.427-86.017 39.183 0 28.757 42.136 50.142 94.034 52.069 63.825 2.385 78.238-15.317 79.012-44.251" fill="#1e5ca6"/><path d="M338.486 363.334c.361-14.217-34.87-46.683-86.439-46.683-51.572 0-85.431 10.373-85.431 38.93 0 28.557 41.842 49.799 93.382 51.708 63.363 2.366 77.719-15.222 78.488-43.955" fill="#1e5da7"/><path d="M337.73 363.388c.36-14.139-34.635-46.364-85.845-46.364-51.213 0-84.847 10.321-84.847 38.678 0 28.358 41.55 49.453 92.729 51.346 62.904 2.346 77.202-15.128 77.963-43.66" fill="#1e5ea7"/><path d="M336.979 363.444c.354-14.063-34.406-46.047-85.253-46.047-50.853 0-84.265 10.269-84.265 38.427 0 28.159 41.259 49.108 92.078 50.985 62.441 2.325 76.683-15.035 77.44-43.365" fill="#215ea8"/><path d="M336.223 363.498c.352-13.987-34.17-45.729-84.66-45.729-50.493 0-83.68 10.218-83.68 38.175 0 27.96 40.966 48.763 91.426 50.624 61.981 2.305 76.167-14.94 76.914-43.07" fill="#225ea8"/><path d="M335.47 363.553c.349-13.909-33.938-45.411-84.067-45.411-50.132 0-83.095 10.164-83.095 37.923 0 27.76 40.673 48.418 90.775 50.263 61.518 2.285 75.644-14.846 76.387-42.775" fill="#215fa9"/><path d="M334.715 363.606c.346-13.832-33.705-45.092-83.474-45.092-49.772 0-82.512 10.112-82.512 37.672 0 27.56 40.381 48.073 90.123 49.901 61.058 2.266 75.127-14.752 75.863-42.481" fill="#245faa"/><path d="M333.962 363.662c.344-13.755-33.473-44.774-82.882-44.774-49.412 0-81.927 10.06-81.927 37.418 0 27.362 40.088 47.729 89.469 49.541 60.598 2.245 74.611-14.658 75.34-42.185" fill="#2560aa"/><path d="M333.207 363.716c.34-13.678-33.24-44.456-82.288-44.456-49.052 0-81.344 10.007-81.344 37.167 0 27.161 39.797 47.385 88.819 49.181 60.135 2.223 74.09-14.565 74.813-41.892" fill="#2561ab"/><path d="M332.452 363.771c.338-13.601-33.007-44.137-81.695-44.137-48.691 0-80.759 9.954-80.759 36.915s39.504 47.039 88.166 48.819c59.676 2.203 73.573-14.471 74.288-41.597" fill="#2760a9"/><path d="M331.699 363.825c.334-13.524-32.776-43.819-81.104-43.819-48.331 0-80.175 9.901-80.175 36.663 0 26.762 39.213 46.694 87.515 48.457 59.215 2.185 73.055-14.376 73.764-41.301" fill="#2762ac"/><path d="M330.944 363.88c.331-13.448-32.542-43.501-80.509-43.501-47.973 0-79.592 9.849-79.592 36.411 0 26.563 38.92 46.349 86.862 48.096 58.754 2.164 72.537-14.282 73.239-41.006" fill="#2961aa"/><path d="M330.191 363.935c.328-13.372-32.311-43.184-79.918-43.184-47.612 0-79.006 9.797-79.006 36.16 0 26.363 38.628 46.004 86.209 47.735 58.294 2.144 72.02-14.189 72.715-40.711" fill="#2962ab"/><path d="M329.437 363.989c.325-13.294-32.078-42.864-79.325-42.864-47.251 0-78.423 9.745-78.423 35.908 0 26.164 38.336 45.66 85.558 47.373 57.832 2.123 71.501-14.096 72.19-40.417" fill="#2c62ab"/><path d="M328.684 364.045c.321-13.218-31.846-42.547-78.733-42.547-46.891 0-77.838 9.692-77.838 35.655 0 25.965 38.043 45.315 84.905 47.013 57.373 2.103 70.982-14.001 71.666-40.121" fill="#2d63ad"/><path d="M327.929 364.099c.32-13.14-31.611-42.228-78.139-42.228-46.532 0-77.254 9.639-77.254 35.403 0 25.766 37.751 44.971 84.253 46.652 56.91 2.083 70.465-13.908 71.14-39.827" fill="#2e64ac"/><path d="M327.176 364.154c.314-13.064-31.381-41.91-77.548-41.91-46.171 0-76.67 9.586-76.67 35.151 0 25.565 37.459 44.626 83.601 46.291 56.451 2.062 69.947-13.814 70.617-39.532" fill="#3064ae"/><path d="M326.421 364.207c.313-12.986-31.146-41.592-76.954-41.592-45.81 0-76.085 9.534-76.085 34.901 0 25.367 37.166 44.282 82.949 45.929 55.988 2.043 69.428-13.72 70.09-39.238" fill="#3164ac"/><path d="M325.668 364.263c.309-12.91-30.917-41.274-76.363-41.274-45.451 0-75.502 9.482-75.502 34.648 0 25.166 36.875 43.936 82.296 45.568 55.53 2.023 68.913-13.626 69.569-38.942" fill="#3165ad"/><path d="M324.913 364.317c.307-12.832-30.682-40.956-75.768-40.956-45.091 0-74.918 9.43-74.918 34.396 0 24.967 36.582 43.591 81.644 45.207 55.068 2.002 68.393-13.531 69.042-38.647" fill="#3365ac"/><path d="M324.16 364.372c.302-12.757-30.451-40.638-75.178-40.638-44.731 0-74.334 9.377-74.334 34.145 0 24.767 36.291 43.246 80.994 44.845 54.607 1.982 67.875-13.437 68.518-38.352" fill="#3466ad"/><path d="M323.405 364.426c.3-12.679-30.217-40.319-74.583-40.319-44.369 0-73.75 9.324-73.75 33.891 0 24.568 35.998 42.902 80.341 44.485 54.146 1.963 67.356-13.343 67.992-38.057" fill="#3368af"/><path d="M322.652 364.481c.297-12.602-29.984-40-73.991-40-44.01 0-73.165 9.271-73.165 33.639 0 24.369 35.705 42.558 79.688 44.125 53.683 1.94 66.837-13.251 67.468-37.764" fill="#3567ad"/><path d="M321.897 364.536c.294-12.525-29.751-39.683-73.397-39.683-43.651 0-72.582 9.22-72.582 33.389 0 24.17 35.414 42.213 79.037 43.763 53.223 1.92 66.32-13.157 66.942-37.469" fill="#3567ad"/><path d="M321.144 364.591c.291-12.45-29.519-39.365-72.805-39.365-43.29 0-71.997 9.166-71.997 33.136 0 23.969 35.12 41.868 78.384 43.401 52.761 1.902 65.799-13.061 66.418-37.172" fill="#3868ae"/><path d="M320.39 364.646c.287-12.372-29.286-39.047-72.214-39.047s-71.412 9.115-71.412 32.885c0 23.77 34.828 41.523 77.732 43.04 52.302 1.881 65.282-12.969 65.894-36.878" fill="#3a68af"/><path d="M319.636 364.699c.284-12.294-29.054-38.728-71.621-38.728-42.569 0-70.829 9.062-70.829 32.633 0 23.571 34.537 41.178 77.08 42.679 51.84 1.86 64.766-12.874 65.37-36.584" fill="#3b68af"/><path d="M318.882 364.755c.281-12.218-28.822-38.411-71.028-38.411-42.209 0-70.245 9.01-70.245 32.381 0 23.372 34.245 40.833 76.427 42.319 51.381 1.839 64.247-12.782 64.846-36.289" fill="#3c69b0"/><path d="M318.128 364.808c.278-12.14-28.59-38.091-70.435-38.091-41.85 0-69.661 8.956-69.661 32.128s33.953 40.488 75.777 41.957c50.918 1.821 63.727-12.686 64.319-35.994" fill="#3c6aaf"/><path d="M317.374 364.863c.275-12.064-28.357-37.773-69.843-37.773-41.489 0-69.076 8.904-69.076 31.876s33.66 40.143 75.125 41.595c50.457 1.802 63.209-12.591 63.794-35.698" fill="#3e6aaf"/><path d="M316.62 364.918c.273-11.988-28.124-37.456-69.249-37.456-41.128 0-68.492 8.853-68.492 31.625 0 22.774 33.368 39.799 74.472 41.235 49.996 1.779 62.691-12.498 63.269-35.404" fill="#3f6bb0"/><path d="M315.866 364.973c.269-11.911-27.892-37.138-68.657-37.138-40.77 0-67.908 8.8-67.908 31.373 0 22.574 33.075 39.454 73.82 40.873 49.535 1.76 62.174-12.404 62.745-35.108" fill="#406cb1"/><path d="M315.112 365.028c.267-11.834-27.658-36.819-68.063-36.819-40.409 0-67.325 8.747-67.325 31.121 0 22.373 32.783 39.109 73.168 40.512 49.075 1.739 61.655-12.312 62.22-34.814" fill="#426cb0"/><path d="M314.358 365.082c.262-11.758-27.426-36.501-67.472-36.501-40.047 0-66.74 8.694-66.74 30.869 0 22.175 32.491 38.765 72.516 40.152 48.614 1.719 61.138-12.218 61.696-34.52" fill="#436cb1"/><path d="M313.604 365.137c.261-11.68-27.192-36.182-66.879-36.182-39.688 0-66.155 8.641-66.155 30.617 0 21.974 32.199 38.418 71.864 39.789 48.152 1.699 60.619-12.123 61.17-34.224" fill="#446db2"/><path d="M312.851 365.192c.255-11.602-26.962-35.865-66.288-35.865-39.328 0-65.571 8.589-65.571 30.365 0 21.775 31.905 38.074 71.212 39.43 47.692 1.678 60.101-12.03 60.647-33.93" fill="#456eb1"/><path d="M312.096 365.246c.253-11.526-26.728-35.546-65.693-35.546-38.969 0-64.987 8.538-64.987 30.114s31.614 37.73 70.559 39.068c47.231 1.658 59.583-11.936 60.121-33.636" fill="#476fb2"/><path d="M311.342 365.3c.251-11.449-26.496-35.228-65.101-35.228-38.608 0-64.403 8.484-64.403 29.862 0 21.377 31.321 37.384 69.907 38.706 46.77 1.639 59.066-11.841 59.597-33.34" fill="#476fb2"/><path d="M310.588 365.355c.247-11.372-26.263-34.91-64.507-34.91-38.248 0-63.82 8.432-63.82 29.608 0 21.177 31.03 37.041 69.256 38.347 46.308 1.618 58.546-11.746 59.071-33.045" fill="#496fb3"/><path d="M309.834 365.41c.245-11.296-26.031-34.592-63.915-34.592-37.889 0-63.236 8.379-63.236 29.358 0 20.978 30.737 36.695 68.603 37.984 45.849 1.598 58.029-11.653 58.548-32.75" fill="#496fb1"/><path d="M309.08 365.465c.241-11.219-25.798-34.274-63.322-34.274-37.527 0-62.652 8.327-62.652 29.105s30.447 36.351 67.951 37.623c45.389 1.578 57.51-11.559 58.023-32.454" fill="#4b70b4"/><path d="M308.326 365.519c.237-11.143-25.566-33.955-62.73-33.955-37.167 0-62.067 8.274-62.067 28.853 0 20.58 30.154 36.006 67.3 37.263 44.926 1.557 56.991-11.465 57.497-32.161" fill="#4b71b5"/><path d="M307.572 365.574c.237-11.065-25.332-33.638-62.137-33.638-36.808 0-61.482 8.221-61.482 28.602 0 20.38 29.861 35.661 66.646 36.901 44.466 1.537 56.475-11.371 56.973-31.865" fill="#4c70b4"/><path d="M306.818 365.629c.232-10.988-25.101-33.32-61.545-33.32-36.447 0-60.898 8.17-60.898 28.35s29.569 35.316 65.995 36.54c44.005 1.517 55.956-11.278 56.448-31.57" fill="#4c72b4"/><path d="M306.064 365.683c.23-10.911-24.868-33.001-60.952-33.001-36.088 0-60.314 8.116-60.314 28.098 0 19.98 29.278 34.97 65.343 36.179 43.545 1.496 55.437-11.183 55.923-31.276" fill="#4f73b4"/><path d="M305.311 365.738c.226-10.835-24.637-32.683-60.359-32.683-35.727 0-59.73 8.064-59.73 27.845 0 19.782 28.984 34.628 64.69 35.819 43.083 1.476 54.92-11.09 55.399-30.981" fill="#4f73b4"/><path d="M304.557 365.793c.221-10.758-24.404-32.364-59.767-32.364-35.367 0-59.147 8.011-59.147 27.593s28.694 34.281 64.039 35.457c42.623 1.456 54.402-10.997 54.875-30.686" fill="#5073b6"/><path d="M303.803 365.847c.22-10.681-24.17-32.046-59.173-32.046-35.007 0-58.562 7.959-58.562 27.342s28.4 33.937 63.386 35.096c42.16 1.436 53.882-10.903 54.349-30.392" fill="#5174b5"/><path d="M303.049 365.903c.216-10.604-23.939-31.728-58.581-31.728-34.647 0-57.978 7.906-57.978 27.089s28.108 33.592 62.734 34.734c41.7 1.416 53.366-10.808 53.825-30.095" fill="#5275b6"/><path d="M302.295 365.956c.214-10.527-23.705-31.409-57.989-31.409-34.286 0-57.393 7.853-57.393 26.837s27.816 33.247 62.083 34.374c41.237 1.395 52.846-10.714 53.299-29.802" fill="#5276b5"/><path d="M301.541 366.011c.21-10.451-23.473-31.092-57.396-31.092-33.926 0-56.81 7.802-56.81 26.587s27.524 32.902 61.432 34.012c40.776 1.375 52.327-10.62 52.774-29.507" fill="#5477b6"/><path d="M300.787 366.066c.206-10.374-23.239-30.774-56.802-30.774-33.567 0-56.226 7.749-56.226 26.334s27.231 32.557 60.778 33.652c40.316 1.355 51.81-10.527 52.25-29.212" fill="#5577b7"/><path d="M300.033 366.12c.203-10.296-23.008-30.455-56.211-30.455-33.206 0-55.641 7.696-55.641 26.082 0 18.385 26.939 32.213 60.126 33.29 39.857 1.335 51.293-10.433 51.726-28.917" fill="#5577b7"/><path d="M299.279 366.175c.2-10.219-22.775-30.137-55.618-30.137-32.846 0-55.057 7.643-55.057 25.83 0 18.187 26.646 31.869 59.474 32.929 39.395 1.315 50.774-10.338 51.201-28.622" fill="#5778b7"/><path d="M298.524 366.23c.198-10.143-22.542-29.82-55.024-29.82-32.485 0-54.473 7.592-54.473 25.579 0 17.986 26.354 31.523 58.822 32.568 38.934 1.295 50.255-10.245 50.675-28.327" fill="#5879b8"/><path d="M297.771 366.285c.194-10.066-22.31-29.501-54.432-29.501-32.126 0-53.889 7.539-53.889 25.327 0 17.787 26.062 31.178 58.17 32.207 38.473 1.273 49.737-10.152 50.151-28.033" fill="#597ab9"/><path d="M297.016 366.339c.192-9.989-22.077-29.183-53.838-29.183-31.766 0-53.306 7.487-53.306 25.075s25.77 30.833 57.519 31.845c38.012 1.254 49.219-10.056 49.625-27.737" fill="#5b7ab9"/><path d="M296.263 366.394c.189-9.912-21.844-28.864-53.246-28.864-31.406 0-52.721 7.435-52.721 24.823s25.477 30.489 56.866 31.484c37.55 1.233 48.7-9.964 49.101-27.443" fill="#5c7cb8"/><path d="M295.508 366.447c.185-9.835-21.612-28.545-52.654-28.545-31.045 0-52.136 7.381-52.136 24.571 0 17.188 25.185 30.143 56.214 31.123 37.09 1.213 48.183-9.87 48.576-27.149" fill="#5d7bb8"/><path d="M294.754 366.504c.184-9.76-21.378-28.229-52.06-28.229-30.685 0-51.553 7.329-51.553 24.318s24.892 29.8 55.561 30.763c36.63 1.192 47.665-9.775 48.052-26.852" fill="#5d7cb8"/><path d="M294 366.557c.18-9.681-21.146-27.909-51.468-27.909-30.325 0-50.969 7.276-50.969 24.066s24.601 29.455 54.911 30.402c36.168 1.172 47.146-9.682 47.526-26.559" fill="#5e7cb9"/><path d="M293.247 366.612c.195-9.604-20.914-27.591-50.876-27.591-29.965 0-50.385 7.224-50.385 23.814s24.308 29.11 54.258 30.04c35.707 1.153 46.664-9.586 47.003-26.263" fill="#5f7dba"/><path d="M292.492 366.666c.193-9.527-20.681-27.273-50.284-27.273-29.605 0-49.799 7.172-49.799 23.563 0 16.39 24.016 28.764 53.606 29.678 35.246 1.133 46.143-9.492 46.477-25.968" fill="#607eb9"/><path d="M291.739 366.721c.19-9.45-20.449-26.955-49.69-26.955-29.245 0-49.216 7.119-49.216 23.312 0 16.191 23.724 28.419 52.954 29.317 34.785 1.112 45.625-9.4 45.952-25.674" fill="#627dbb"/><path d="M290.984 366.776c.187-9.373-20.216-26.637-49.097-26.637-28.885 0-48.632 7.066-48.632 23.058s23.432 28.076 52.301 28.957c34.325 1.093 45.108-9.304 45.428-25.378" fill="#6180ba"/><path d="M290.231 366.831c.185-9.297-19.984-26.319-48.504-26.319-28.526 0-48.047 7.014-48.047 22.808 0 15.792 23.138 27.731 51.648 28.596 33.863 1.071 44.589-9.213 44.903-25.085" fill="#6380bb"/><path d="M289.477 366.886c.18-9.22-19.752-26.002-47.913-26.002-28.164 0-47.463 6.962-47.463 22.556 0 15.593 22.847 27.386 50.997 28.234 33.403 1.052 44.072-9.118 44.379-24.788" fill="#6481bc"/><path d="M288.723 366.939c.178-9.143-19.517-25.681-47.319-25.681-27.804 0-46.88 6.908-46.88 22.303 0 15.393 22.554 27.041 50.345 27.874 32.943 1.031 43.553-9.024 43.854-24.496" fill="#6582bb"/><path d="M287.969 366.995c.174-9.066-19.286-25.364-46.728-25.364-27.444 0-46.296 6.857-46.296 22.051 0 15.194 22.263 26.696 49.693 27.512 32.483 1.011 43.037-8.93 43.331-24.199" fill="#6682bb"/><path d="M287.214 367.049c.172-8.99-19.051-25.046-46.133-25.046-27.084 0-45.711 6.804-45.711 21.799 0 14.996 21.97 26.352 49.041 27.152 32.02.991 42.516-8.837 42.803-23.905" fill="#6783bc"/><path d="M286.462 367.104c.168-8.912-18.822-24.728-45.543-24.728-26.723 0-45.126 6.751-45.126 21.548 0 14.794 21.679 26.006 48.388 26.79 31.56.97 41.998-8.742 42.281-23.61" fill="#6883bc"/><path d="M285.707 367.158c.166-8.835-18.588-24.409-44.949-24.409-26.363 0-44.543 6.698-44.543 21.296 0 14.595 21.387 25.661 47.736 26.428 31.101.95 41.48-8.648 41.756-23.315" fill="#6982bd"/><path d="M284.954 367.213c.161-8.758-18.355-24.091-44.356-24.091-26.004 0-43.96 6.647-43.96 21.043 0 14.396 21.095 25.318 47.086 26.068 30.637.931 40.961-8.555 41.23-23.02" fill="#6a83bd"/><path d="M284.199 367.267c.159-8.681-18.123-23.773-43.763-23.773-25.644 0-43.375 6.594-43.375 20.791s20.802 24.972 46.433 25.706c30.177.912 40.442-8.459 40.705-22.724" fill="#6b85be"/><path d="M283.446 367.322c.156-8.605-17.89-23.455-43.17-23.455-25.283 0-42.792 6.541-42.792 20.54 0 13.998 20.51 24.627 45.781 25.345 29.715.89 39.925-8.366 40.181-22.43" fill="#6d86be"/><path d="M282.691 367.378c.153-8.529-17.658-23.138-42.577-23.138-24.924 0-42.207 6.49-42.207 20.288s20.217 24.282 45.129 24.984c29.254.87 39.405-8.272 39.655-22.134" fill="#6e86bf"/><path d="M281.938 367.432c.15-8.452-17.425-22.819-41.986-22.819-24.563 0-41.621 6.437-41.621 20.036s19.924 23.937 44.475 24.623c28.793.85 38.888-8.178 39.132-21.84" fill="#6f87c0"/><path d="M281.183 367.487c.148-8.374-17.192-22.501-41.393-22.501-24.203 0-41.037 6.384-41.037 19.783 0 13.399 19.632 23.593 43.824 24.262 28.332.829 38.37-8.084 38.606-21.544" fill="#7087bf"/><path d="M280.43 367.54c.145-8.297-16.961-22.182-40.8-22.182-23.843 0-40.454 6.331-40.454 19.532 0 13.199 19.341 23.247 43.173 23.902 27.87.808 37.85-7.991 38.081-21.252" fill="#7187c1"/><path d="M279.675 367.596c.141-8.221-16.728-21.864-40.207-21.864-23.483 0-39.871 6.279-39.871 19.279s19.049 22.904 42.52 23.54c27.412.789 37.334-7.896 37.558-20.955" fill="#7288c0"/><path d="M278.922 367.65c.139-8.143-16.496-21.545-39.614-21.545-23.122 0-39.286 6.225-39.286 19.027 0 12.8 18.756 22.559 41.868 23.178 26.948.769 36.814-7.801 37.032-20.66" fill="#7189c1"/><path d="M278.167 367.705c.135-8.068-16.263-21.228-39.021-21.228-22.764 0-38.702 6.175-38.702 18.777 0 12.601 18.464 22.213 41.217 22.818 26.488.747 36.294-7.71 36.506-20.367" fill="#738ac1"/><path d="M277.415 367.759c.131-7.989-16.031-20.91-38.43-20.91-22.403 0-38.117 6.121-38.117 18.524s18.171 21.869 40.563 22.457c26.028.729 35.779-7.614 35.984-20.071" fill="#748bc2"/><path d="M276.659 367.814c.128-7.913-15.798-20.592-37.835-20.592-22.042 0-37.533 6.069-37.533 18.272s17.878 21.524 39.911 22.097c25.567.708 35.258-7.522 35.457-19.777" fill="#758bc2"/><path d="M275.906 367.869c.125-7.836-15.564-20.273-37.244-20.273-21.683 0-36.949 6.016-36.949 18.02s17.587 21.179 39.26 21.735c25.105.687 34.74-7.428 34.933-19.482" fill="#778cc3"/><path d="M275.151 367.924c.122-7.76-15.331-19.955-36.651-19.955-21.322 0-36.365 5.963-36.365 17.768 0 11.803 17.294 20.835 38.607 21.373 24.646.668 34.224-7.333 34.409-19.186" fill="#7b8fc5"/><path d="M274.397 367.979c.119-7.683-15.098-19.637-36.058-19.637-20.962 0-35.78 5.912-35.78 17.516s17.002 20.49 37.955 21.012c24.184.647 33.702-7.239 33.883-18.891" fill="#7c90c5"/><path d="M273.644 368.033c.115-7.606-14.868-19.318-35.466-19.318-20.601 0-35.197 5.857-35.197 17.264 0 11.404 16.709 20.145 37.303 20.651 23.724.627 33.185-7.146 33.36-18.597" fill="#7c90c6"/><path d="M272.889 368.088c.112-7.529-14.634-19-34.872-19-20.242 0-34.612 5.805-34.612 17.011 0 11.205 16.417 19.8 36.65 20.29 23.262.606 32.667-7.051 32.834-18.301" fill="#7d91c4"/><path d="M272.136 368.141c.108-7.451-14.402-18.682-34.281-18.682-19.881 0-34.028 5.754-34.028 16.761 0 11.006 16.125 19.456 35.998 19.929 22.802.586 32.149-6.957 32.311-18.008" fill="#7d92c5"/><path d="M271.381 368.197c.107-7.376-14.169-18.364-33.686-18.364-19.522 0-33.445 5.701-33.445 16.508 0 10.807 15.833 19.111 35.347 19.568 22.341.566 31.63-6.863 31.784-17.712" fill="#7e93c6"/><path d="M270.628 368.251c.102-7.299-13.937-18.046-33.095-18.046-19.163 0-32.861 5.648-32.861 16.256 0 10.607 15.541 18.766 34.695 19.206 21.88.548 31.111-6.768 31.261-17.416" fill="#7f93c7"/><path d="M269.874 368.306c.099-7.223-13.705-17.728-32.503-17.728-18.801 0-32.275 5.596-32.275 16.005 0 10.407 15.249 18.421 34.042 18.845 21.419.526 30.592-6.675 30.736-17.122" fill="#8094c7"/><path d="M269.12 368.361c.096-7.145-13.472-17.41-31.91-17.41-18.44 0-31.692 5.545-31.692 15.754 0 10.207 14.956 18.076 33.39 18.484 20.959.505 30.076-6.583 30.212-16.828" fill="#8195c8"/><path d="M268.366 368.415c.092-7.069-13.239-17.091-31.317-17.091-18.082 0-31.108 5.492-31.108 15.501 0 10.008 14.664 17.731 32.738 18.122 20.499.487 29.554-6.486 29.687-16.532" fill="#8294c7"/><path d="M267.613 368.47c.089-6.991-13.007-16.773-30.725-16.773-17.721 0-30.524 5.439-30.524 15.25 0 9.809 14.372 17.386 32.087 17.762 20.036.464 29.036-6.395 29.162-16.239" fill="#8496c8"/><path d="M266.858 368.525c.085-6.915-12.774-16.455-30.131-16.455-17.36 0-29.939 5.386-29.939 14.997 0 9.61 14.081 17.042 31.435 17.401 19.574.444 28.515-6.301 28.635-15.943" fill="#8597c9"/><path d="M266.105 368.579c.083-6.838-12.542-16.136-29.54-16.136-17.001 0-29.355 5.333-29.355 14.745 0 9.41 13.789 16.697 30.783 17.04 19.114.424 27.997-6.207 28.112-15.649" fill="#8597c8"/><path d="M265.35 368.634c.079-6.76-12.309-15.818-28.945-15.818-16.641 0-28.771 5.28-28.771 14.493 0 9.21 13.496 16.352 30.13 16.679 18.653.403 27.479-6.114 27.586-15.354" fill="#8599ca"/><path d="M264.597 368.688c.075-6.683-12.076-15.501-28.353-15.501-16.281 0-28.188 5.23-28.188 14.242 0 9.011 13.204 16.007 29.479 16.317 18.192.385 26.96-6.018 27.062-15.058" fill="#8798c9"/><path d="M263.842 368.742c.072-6.606-11.843-15.182-27.761-15.182-15.92 0-27.602 5.177-27.602 13.99 0 8.812 12.911 15.663 28.826 15.956 17.732.364 26.441-5.924 26.537-14.764" fill="#8899c9"/><path d="M263.089 368.798c.068-6.531-11.611-14.865-27.169-14.865-15.559 0-27.02 5.124-27.02 13.738 0 8.611 12.62 15.317 28.175 15.595 17.271.345 25.924-5.83 26.014-14.468" fill="#8999c9"/><path d="M262.334 368.852c.066-6.453-11.378-14.545-26.575-14.545-15.2 0-26.435 5.071-26.435 13.486 0 8.413 12.327 14.973 27.522 15.234 16.81.323 25.404-5.738 25.488-14.175" fill="#8a9aca"/><path d="M261.581 368.907c.061-6.377-11.146-14.229-25.983-14.229-14.84 0-25.851 5.019-25.851 13.234 0 8.214 12.034 14.629 26.87 14.873 16.348.305 24.885-5.643 24.964-13.878" fill="#8c9dca"/><path d="M260.826 368.962c.058-6.301-10.914-13.909-25.389-13.909-14.479 0-25.267 4.966-25.267 12.981 0 8.014 11.743 14.284 26.218 14.512 15.887.283 24.364-5.549 24.438-13.584" fill="#8c9bca"/><path d="M260.073 369.016c.053-6.223-10.681-13.591-24.798-13.591-14.119 0-24.681 4.914-24.681 12.729 0 7.814 11.449 13.939 25.566 14.151 15.425.264 23.844-5.455 23.913-13.289" fill="#8d9ecb"/><path d="M259.318 369.071c.051-6.146-10.448-13.274-24.204-13.274-13.76 0-24.098 4.862-24.098 12.479 0 7.614 11.157 13.593 24.912 13.79 14.967.241 23.329-5.362 23.39-12.995" fill="#8f9ecd"/><path d="M258.564 369.126c.034-6.069-10.215-12.954-23.61-12.954-13.401 0-23.516 4.808-23.516 12.225 0 7.415 10.867 13.249 24.262 13.428 14.506.222 22.792-5.268 22.864-12.699" fill="#909fcc"/><path d="M257.811 369.18c.042-5.992-9.983-12.636-23.019-12.636-13.04 0-22.931 4.756-22.931 11.974 0 7.217 10.573 12.904 23.609 13.068 14.045.201 22.289-5.175 22.341-12.406" fill="#909fcc"/><path d="M257.056 369.235c.028-5.915-9.749-12.318-22.426-12.318-12.678 0-22.346 4.703-22.346 11.722 0 7.017 10.282 12.56 22.959 12.707 13.582.181 21.755-5.081 21.813-12.111" fill="#92a0ce"/><path d="M256.303 369.289c.023-5.839-9.518-12-21.835-12-12.32 0-21.761 4.651-21.761 11.469 0 6.817 9.988 12.215 22.305 12.345 13.123.163 21.239-4.984 21.291-11.814" fill="#93a2cc"/><path d="M255.548 369.345c.022-5.762-9.284-11.682-21.24-11.682-11.959 0-21.178 4.599-21.178 11.218 0 6.617 9.697 11.87 21.654 11.983 12.661.142 20.719-4.892 20.764-11.519" fill="#97a2cf"/><path d="M254.795 369.399c.018-5.685-9.053-11.365-20.649-11.365-11.598 0-20.593 4.547-20.593 10.967 0 6.418 9.404 11.525 21.001 11.622 12.2.123 20.201-4.798 20.241-11.224" fill="#96a5d0"/><path d="M254.041 369.453c.016-5.608-8.821-11.046-20.056-11.046-11.238 0-20.009 4.494-20.009 10.715 0 6.219 9.112 11.179 20.349 11.262 11.739.101 19.684-4.704 19.716-10.931" fill="#97a6d1"/><path d="M253.287 369.508c.012-5.531-8.588-10.728-19.463-10.728-10.879 0-19.426 4.441-19.426 10.462 0 6.019 8.821 10.836 19.697 10.901 11.28.081 19.166-4.61 19.192-10.635" fill="#99a4d0"/><path d="M252.533 369.563c.009-5.454-8.355-10.41-18.87-10.41-10.519 0-18.842 4.388-18.842 10.21 0 5.82 8.528 10.49 19.045 10.54 10.819.061 18.647-4.516 18.667-10.34" fill="#99a7d0"/><path d="M251.779 369.617c.006-5.378-8.122-10.091-18.278-10.091-10.158 0-18.256 4.337-18.256 9.96 0 5.62 8.235 10.145 18.392 10.177 10.357.04 18.129-4.422 18.142-10.046" fill="#9aa9d2"/><path d="M251.025 369.672c.003-5.3-7.89-9.772-17.685-9.772-9.798 0-17.673 4.283-17.673 9.706 0 5.421 7.943 9.801 17.742 9.817 9.895.019 17.61-4.329 17.616-9.751" fill="#9baad1"/><path d="M250.271 369.727c0-5.224-7.657-9.455-17.091-9.455-9.439 0-17.09 4.232-17.09 9.455 0 5.221 7.651 9.456 17.09 9.456 9.434-.001 17.091-4.236 17.091-9.456" fill="#9ea9d2"/></g><g clip-path="url(#c)" transform="matrix(1.33333 0 0 -1.33333 0 794.667)"><path d="M0 0h596v596H0z" fill="url(#d)"/></g><g clip-path="url(#e)" fill="none" stroke="#050606" transform="matrix(1.33333 0 0 -1.33333 0 794.667)"><path d="M440.074 341.127c0-44.065-66.279-79.785-148.044-79.785-81.756 0-148.035 35.72-148.035 79.785 0 44.064 66.279 79.785 148.035 79.785 81.765 0 148.044-35.722 148.044-79.785z" stroke-width="1.811"/><path d="M427.921 341.437c0-38.728-60.768-70.124-135.733-70.124-74.957 0-135.729 31.396-135.729 70.124 0 38.732 60.772 70.127 135.729 70.127 74.965-.001 135.733-31.395 135.733-70.127z" stroke-width=".905"/></g><g clip-path="url(#f)" transform="matrix(1.33333 0 0 -1.33333 0 794.667)"><path d="M0 0h596v596H0z" fill="url(#g)"/></g><g clip-path="url(#h)" transform="matrix(1.33333 0 0 -1.33333 0 794.667)"><path d="M0 0h596v596H0z" fill="url(#i)"/></g><g clip-path="url(#j)" transform="matrix(1.33333 0 0 -1.33333 0 794.667)"><path d="M0 0h596v596H0z" fill="url(#k)"/></g><g clip-path="url(#l)" transform="matrix(1.33333 0 0 -1.33333 0 794.667)"><path d="M0 0h596v596H0z" fill="url(#m)"/></g><g clip-path="url(#n)" transform="matrix(1.33333 0 0 -1.33333 0 794.667)"><path d="M267.647 303.726s-14.256-1.089-14.18-2.647c.079-1.558 11.765-2.726 13.71-2.962 1.95-.233 9.585-1.091 11.769-1.869 2.179-.781 3.662-1.405 4.519-3.822.854-2.412 2.958-9.581 2.958-9.581s1.012-3.971 1.871-3.971c.858 0 1.869 4.205 1.869 4.205s2.107 8.961 3.665 10.595c1.558 1.639 1.791 2.258 8.728 3.352 6.931 1.091 13.785 2.337 19.007 2.337 5.224 0 6.237-.078 9.425-.465 3.203-.391 10.056-1.251 12.78-2.106 2.73-.857 3.668-2.806 4.367-4.599.703-1.789 2.261-6.544 2.261-6.544s.388-1.948 1.325-1.948c.932 0 1.32 2.027 1.32 2.027s2.495 7.946 3.895 9.195c1.407 1.246 2.42 2.414 9.353 3.27 6.936.86 11.065 1.716 13.481 1.872 2.412.156 4.128.469 4.128 1.246 0 .781-.937 1.092-4.362 1.559-3.429.467-13.636 1.56-19.016 2.729-5.371 1.165-5.684 5.451-6.47 7.555-.776 2.104-1.318 5.455-2.567 5.455s-1.554-2.26-1.792-2.962c-.233-.7-1.478-5.141-2.411-6.622-.938-1.481-1.641-3.116-5.3-3.82-3.662-.699-10.519-2.179-16.984-2.335-6.467-.154-10.132.311-15.197.935-5.062.625-9.736.856-13.244 2.418-3.507 1.557-5.299 6.697-6.236 9.813-.932 3.116-1.554 4.597-2.103 4.597-.546 0-1.555-2.338-2.179-4.362-.622-2.027-2.262-8.027-4.675-9.51-2.417-1.476-6.471-2.331-13.715-3.035z" fill="none" stroke="#050606" stroke-width="1.811"/></g><g clip-path="url(#o)" transform="matrix(1.33333 0 0 -1.33333 0 794.667)"><path d="M0 0h596v596H0z" fill="url(#p)"/></g><g clip-path="url(#q)" transform="matrix(1.33333 0 0 -1.33333 0 794.667)"><path d="M0 0h596v596H0z" fill="url(#r)"/></g><g clip-path="url(#s)" transform="matrix(1.33333 0 0 -1.33333 0 794.667)"><path d="M0 0h596v596H0z" fill="url(#t)"/></g><g clip-path="url(#u)" transform="matrix(1.33333 0 0 -1.33333 0 794.667)"><path d="M0 0h596v596H0z" fill="url(#v)"/></g><g clip-path="url(#w)" transform="matrix(1.33333 0 0 -1.33333 0 794.667)"><path d="M0 0h596v596H0z" fill="url(#x)"/></g><g clip-path="url(#y)" transform="matrix(1.33333 0 0 -1.33333 0 794.667)"><path d="M0 0h596v596H0z" fill="url(#z)"/></g><g clip-path="url(#A)" transform="matrix(1.33333 0 0 -1.33333 0 794.667)"><path d="M0 0h596v596H0z" fill="url(#B)"/></g><g clip-path="url(#C)" transform="matrix(1.33333 0 0 -1.33333 0 794.667)"><path d="M0 0h596v596H0z" fill="url(#D)"/></g><g clip-path="url(#E)" transform="matrix(1.33333 0 0 -1.33333 0 794.667)"><path d="M0 0h596v596H0z" fill="url(#F)"/></g><g clip-path="url(#G)" transform="matrix(1.33333 0 0 -1.33333 0 794.667)"><path d="M0 0h596v596H0z" fill="url(#H)"/></g><g clip-path="url(#I)" transform="matrix(1.33333 0 0 -1.33333 0 794.667)"><path d="M0 0h596v596H0z" fill="url(#J)"/></g><g clip-path="url(#K)" transform="matrix(1.33333 0 0 -1.33333 0 794.667)"><path d="M0 0h596v596H0z" fill="url(#L)"/></g><g clip-path="url(#M)" transform="matrix(1.33333 0 0 -1.33333 0 794.667)"><path d="M0 0h596v596H0z" fill="url(#N)"/></g><g clip-path="url(#O)" transform="matrix(1.33333 0 0 -1.33333 0 794.667)"><path d="M0 0h596v596H0z" fill="url(#P)"/></g><g clip-path="url(#Q)" transform="matrix(1.33333 0 0 -1.33333 0 794.667)"><path d="M0 0h596v596H0z" fill="url(#R)"/></g><g clip-path="url(#S)" transform="matrix(1.33333 0 0 -1.33333 0 794.667)"><path d="M0 0h596v596H0z" fill="url(#T)"/></g><g clip-path="url(#U)" transform="matrix(1.33333 0 0 -1.33333 0 794.667)"><path d="M0 0h596v596H0z" fill="url(#V)"/></g><g clip-path="url(#W)" transform="matrix(1.33333 0 0 -1.33333 0 794.667)"><path d="M365.157 328.263c-5.22.01-12.076-1.269-19.011-2.381-6.934-1.113-7.167-1.746-8.721-3.413-1.566-1.669-3.665-10.795-3.665-10.795s-1.013-4.286-1.872-4.286c-.86 0-1.87 4.047-1.87 4.047s-2.104 7.302-2.958 9.763c-.863 2.46-2.337 3.095-4.521 3.892-2.185.792-9.818 1.664-11.768 1.902-1.947.237-13.632 1.43-13.711 3.017-.076 1.586 14.181 2.696 14.181 2.696 7.241.716 11.297 1.591 13.709 3.096 2.42 1.508 4.054 7.621 4.678 9.684.622 2.063 1.635 4.441 2.18 4.441.547 0 1.174-1.502 2.103-4.681.937-3.175 2.725-8.414 6.235-10 3.505-1.585 8.187-1.825 13.244-2.461 0 0 6.044-1.167 12.429-1.008 6.39.153 10.365 1.246 12.86 1.634 2.491.39 7.164 1.17 8.64 4.597 1.483 3.427 2.96 8.415 4.057 8.493 1.087.075 2.8-5.455 2.8-5.455s1.245-5.376 5.458-6.31c4.203-.935 10.83-2.495 14.259-2.959 3.424-.471 4.515-.781 4.515-1.717 0-.933-4.59-1.402-4.59-1.402s-12.392-1.4-14.884-2.96c-2.495-1.558-3.979-2.649-5.849-11.064-.7-2.184-.854-3.193-1.559-3.193-.7 0-1.87 3.506-3.27 8.335-1.4 4.829-2.569 6.153-9.506 7.168-6.937 1.015-9.887 1.31-13.593 1.32z" fill="none" stroke="#050606" stroke-width="1.811"/></g><g clip-path="url(#X)" transform="matrix(1.33333 0 0 -1.33333 0 794.667)"><path d="M0 0h596v596H0z" fill="url(#Y)"/></g><g clip-path="url(#Z)" transform="matrix(1.33333 0 0 -1.33333 0 794.667)"><path d="M0 0h596v596H0z" fill="url(#aa)"/></g><g clip-path="url(#ab)" transform="matrix(1.33333 0 0 -1.33333 0 794.667)"><path d="M0 0h596v596H0z" fill="url(#ac)"/></g><g clip-path="url(#ad)" transform="matrix(1.33333 0 0 -1.33333 0 794.667)"><path d="M0 0h596v596H0z" fill="url(#ae)"/></g><g clip-path="url(#af)" transform="matrix(1.33333 0 0 -1.33333 0 794.667)"><path d="M0 0h596v596H0z" fill="url(#ag)"/></g><g clip-path="url(#ah)" transform="matrix(1.33333 0 0 -1.33333 0 794.667)"><path d="M0 0h596v596H0z" fill="url(#ai)"/></g><g clip-path="url(#aj)" transform="matrix(1.33333 0 0 -1.33333 0 794.667)"><path d="M0 0h596v596H0z" fill="url(#ak)"/></g><g clip-path="url(#al)" transform="matrix(1.33333 0 0 -1.33333 0 794.667)"><path d="M0 0h596v596H0z" fill="url(#am)"/></g><g clip-path="url(#an)" transform="matrix(1.33333 0 0 -1.33333 0 794.667)"><path d="M0 0h596v596H0z" fill="url(#ao)"/></g><g clip-path="url(#ap)" transform="matrix(1.33333 0 0 -1.33333 0 794.667)"><path d="M0 0h596v596H0z" fill="url(#aq)"/></g><g clip-path="url(#ar)" transform="matrix(1.33333 0 0 -1.33333 0 794.667)"><path d="M0 0h596v596H0z" fill="url(#as)"/></g><g clip-path="url(#at)" transform="matrix(1.33333 0 0 -1.33333 0 794.667)"><path d="M0 0h596v596H0z" fill="url(#au)"/></g><g clip-path="url(#av)" transform="matrix(1.33333 0 0 -1.33333 0 794.667)"><path d="M0 0h596v596H0z" fill="url(#aw)"/></g><g clip-path="url(#ax)" transform="matrix(1.33333 0 0 -1.33333 0 794.667)"><path d="M0 0h596v596H0z" fill="url(#ay)"/></g><g clip-path="url(#az)" transform="matrix(1.33333 0 0 -1.33333 0 794.667)"><path d="M0 0h596v596H0z" fill="url(#aA)"/></g><g clip-path="url(#aB)" transform="matrix(1.33333 0 0 -1.33333 0 794.667)"><path d="M0 0h596v596H0z" fill="url(#aC)"/></g><g clip-path="url(#aD)" transform="matrix(1.33333 0 0 -1.33333 0 794.667)"><path d="M0 0h596v596H0z" fill="url(#aE)"/></g><g clip-path="url(#aF)" transform="matrix(1.33333 0 0 -1.33333 0 794.667)"><path d="M188.368 362.28l-17.063-2.337s-3.041-.117-3.041-1.288c0-1.168 2.575-1.168 3.508-1.285.936-.116 19.166-2.57 19.166-2.57s29.104-3.975 31.905-4.441c2.808-.469 10.638-1.519 14.027-4.56 3.39-3.038 6.312-9.583 8.416-19.283 2.101-9.702 4.321-17.998 4.321-17.998s.353-2.921 1.517-2.921c1.178 0 1.525 3.037 1.525 3.037s5.726 22.791 7.13 26.764c1.399 3.973 3.388 12.39 16.126 14.375 12.738 1.987 36.465 4.674 36.465 4.674s23.143 2.807 31.093 2.34c7.941-.469 16.827-1.637 19.049-1.987 2.218-.353 5.801-.74 7.364-4.636 1.554-3.896 3.27-11.22 3.27-11.22s.545-2.26 1.4-2.26c.856 0 1.402 2.104 1.402 2.104s2.572 8.883 3.508 11.142c.937 2.262 2.807 4.205 9.739 5.066 6.936.858 14.261 2.413 14.261 2.413s3.504.078 3.504 1.404c0 1.325-3.741 1.399-3.741 1.399l-15.898 2.573s-6.386.467-8.019 4.675c-1.637 4.208-3.354 8.806-3.354 8.806s-.311 1.869-1.245 1.869c-.937 0-1.403-2.259-1.403-2.259s-1.871-6.467-3.35-8.571-3.269-4.208-11.139-4.988c-7.87-.778-11.998-1.635-15.115-1.714-3.12-.078-9.589-.078-14.73.544-5.138.623-38.41 4.675-38.41 4.675s-13.323 1.482-17.535 2.883c-4.203 1.402-10.363 1.637-15.114 16.52-4.753 14.881-5.061 15.972-5.061 15.972s-.396 2.725-1.724 2.725c-1.314 0-1.705-3.037-1.705-3.037s-5.302-17.222-7.797-22.361c-2.493-5.142-4.284-9.973-25.084-12.31-18.468-2.415-28.168-3.934-28.168-3.934z" fill="none" stroke="#050606" stroke-width="1.811"/></g><g clip-path="url(#aG)" transform="matrix(1.33333 0 0 -1.33333 0 794.667)"><path d="M0 0h596v596H0z" fill="url(#aH)"/></g><g clip-path="url(#aI)" transform="matrix(1.33333 0 0 -1.33333 0 794.667)"><path d="M0 0h596v596H0z" fill="url(#aJ)"/></g><g clip-path="url(#aK)" transform="matrix(1.33333 0 0 -1.33333 0 794.667)"><path d="M0 0h596v596H0z" fill="url(#aL)"/></g><g clip-path="url(#aM)" transform="matrix(1.33333 0 0 -1.33333 0 794.667)"><path d="M0 0h596v596H0z" fill="url(#aN)"/></g><g clip-path="url(#aO)" transform="matrix(1.33333 0 0 -1.33333 0 794.667)"><path d="M0 0h596v596H0z" fill="url(#aP)"/></g><g clip-path="url(#aQ)" transform="matrix(1.33333 0 0 -1.33333 0 794.667)"><path d="M0 0h596v596H0z" fill="url(#aR)"/></g><g clip-path="url(#aS)" transform="matrix(1.33333 0 0 -1.33333 0 794.667)"><path d="M0 0h596v596H0z" fill="url(#aT)"/></g><g clip-path="url(#aU)" transform="matrix(1.33333 0 0 -1.33333 0 794.667)"><path d="M0 0h596v596H0z" fill="url(#aV)"/></g><g clip-path="url(#aW)" transform="matrix(1.33333 0 0 -1.33333 0 794.667)"><path d="M0 0h596v596H0z" fill="url(#aX)"/></g><g clip-path="url(#aY)" transform="matrix(1.33333 0 0 -1.33333 0 794.667)"><path d="M0 0h596v596H0z" fill="url(#aZ)"/></g><g clip-path="url(#ba)" transform="matrix(1.33333 0 0 -1.33333 0 794.667)"><path d="M0 0h596v596H0z" fill="url(#bb)"/></g><g clip-path="url(#bc)" transform="matrix(1.33333 0 0 -1.33333 0 794.667)"><path d="M0 0h596v596H0z" fill="url(#bd)"/></g><g clip-path="url(#be)" transform="matrix(1.33333 0 0 -1.33333 0 794.667)"><path d="M0 0h596v596H0z" fill="url(#bf)"/></g><g clip-path="url(#bg)" transform="matrix(1.33333 0 0 -1.33333 0 794.667)"><path d="M0 0h596v596H0z" fill="url(#bh)"/></g><g clip-path="url(#bi)" transform="matrix(1.33333 0 0 -1.33333 0 794.667)"><path d="M0 0h596v596H0z" fill="url(#bj)"/></g><g clip-path="url(#bk)" transform="matrix(1.33333 0 0 -1.33333 0 794.667)"><path d="M0 0h596v596H0z" fill="url(#bl)"/></g><g clip-path="url(#bm)" transform="matrix(1.33333 0 0 -1.33333 0 794.667)"><path d="M0 0h596v596H0z" fill="url(#bn)"/></g><g clip-path="url(#bo)" transform="matrix(1.33333 0 0 -1.33333 0 794.667)"><path d="M0 0h596v596H0z" fill="url(#bp)"/></g><g clip-path="url(#bq)" transform="matrix(1.33333 0 0 -1.33333 0 794.667)"><path d="M0 0h596v596H0z" fill="url(#br)"/></g><g clip-path="url(#bs)" transform="matrix(1.33333 0 0 -1.33333 0 794.667)"><path d="M0 0h596v596H0z" fill="url(#bt)"/></g><g clip-path="url(#bu)" transform="matrix(1.33333 0 0 -1.33333 0 794.667)"><path d="M0 0h596v596H0z" fill="url(#bv)"/></g><g clip-path="url(#bw)" transform="matrix(1.33333 0 0 -1.33333 0 794.667)"><path d="M0 0h596v596H0z" fill="url(#bx)"/></g><g clip-path="url(#by)" transform="matrix(1.33333 0 0 -1.33333 0 794.667)"><path d="M0 0h596v596H0z" fill="url(#bz)"/></g><g clip-path="url(#bA)" transform="matrix(1.33333 0 0 -1.33333 0 794.667)"><path d="M0 0h596v596H0z" fill="url(#bB)"/></g><g clip-path="url(#bC)" transform="matrix(1.33333 0 0 -1.33333 0 794.667)"><path d="M0 0h596v596H0z" fill="url(#bD)"/></g></svg>